<svg id="svg" version="1.1" xmlns="http://www.w3.org/2000/svg" xmlns:xlink="http://www.w3.org/1999/xlink" width="400" height="400" viewBox="0, 0, 400,400"><g id="svgg"><path id="path0" d="M0.000 200.000 L 0.000 400.000 200.000 400.000 L 400.000 400.000 400.000 200.000 L 400.000 0.000 200.000 0.000 L 0.000 0.000 0.000 200.000 M187.800 188.180 C 192.600 188.989,202.000 195.150,202.000 197.487 C 202.000 197.769,202.150 198.000,202.333 198.000 C 202.517 198.000,203.175 199.035,203.795 200.300 C 205.504 203.784,205.998 205.165,206.478 207.800 C 207.563 213.756,207.746 228.016,206.745 228.634 C 206.555 228.751,206.400 229.458,206.400 230.205 C 206.400 230.951,206.198 232.066,205.950 232.681 C 205.703 233.297,205.368 234.160,205.205 234.600 C 204.507 236.493,202.634 240.400,202.424 240.400 C 202.298 240.400,201.969 240.910,201.693 241.534 C 201.160 242.739,196.828 247.037,195.239 247.938 C 192.057 249.741,191.359 250.088,189.859 250.610 C 188.947 250.928,187.831 251.191,187.380 251.194 C 186.929 251.197,186.372 251.388,186.142 251.618 C 185.618 252.142,172.513 251.905,170.152 251.329 C 161.147 249.131,154.095 241.027,152.290 230.800 C 151.730 227.629,151.475 213.674,151.946 212.000 C 152.163 211.230,152.573 209.520,152.856 208.200 C 153.140 206.880,153.784 204.946,154.286 203.902 C 154.789 202.858,155.200 201.905,155.200 201.784 C 155.200 199.751,161.671 193.062,165.777 190.851 C 168.434 189.419,169.495 189.033,173.400 188.074 C 175.104 187.656,185.125 187.729,187.800 188.180 M102.730 189.025 C 104.060 189.688,106.400 192.260,106.400 193.058 C 106.400 193.319,106.535 193.593,106.700 193.667 C 107.008 193.803,107.178 194.112,111.296 202.000 C 112.617 204.530,113.834 206.780,114.000 207.000 C 114.167 207.220,115.347 209.380,116.623 211.800 C 117.899 214.220,119.808 217.820,120.865 219.800 C 121.922 221.780,123.704 225.200,124.825 227.400 C 125.946 229.600,127.372 232.300,127.995 233.400 C 128.618 234.500,129.144 235.638,129.164 235.929 C 129.184 236.219,129.436 236.693,129.724 236.981 C 130.156 237.413,130.222 233.388,130.101 214.053 C 129.927 186.201,129.503 188.600,134.600 188.600 C 139.674 188.600,139.220 185.439,139.101 219.891 L 139.000 249.182 137.912 250.270 C 136.895 251.287,136.610 251.355,133.474 251.320 C 128.480 251.266,127.090 250.245,124.061 244.402 C 123.319 242.971,122.576 241.620,122.410 241.400 C 122.244 241.180,121.067 239.020,119.796 236.600 C 116.879 231.048,115.190 227.888,113.917 225.600 C 112.520 223.088,109.992 218.352,108.153 214.800 C 107.299 213.150,106.497 211.710,106.371 211.600 C 106.245 211.490,104.850 208.790,103.271 205.600 L 100.401 199.800 100.401 225.051 C 100.400 254.201,100.870 251.406,95.968 251.389 C 90.680 251.371,91.200 254.671,91.200 221.125 C 91.200 190.210,91.182 190.499,93.247 189.052 C 94.529 188.154,100.948 188.136,102.730 189.025 M222.489 189.100 C 223.107 189.806,224.457 194.376,225.412 199.000 C 225.549 199.660,225.804 200.560,225.980 201.000 C 226.286 201.765,227.146 204.773,228.038 208.200 C 228.267 209.080,228.622 210.353,228.827 211.028 C 229.032 211.704,229.200 212.638,229.200 213.105 C 229.200 213.571,229.360 214.052,229.556 214.173 C 229.751 214.294,229.999 214.979,230.106 215.696 C 230.213 216.413,230.786 218.710,231.379 220.800 C 232.700 225.453,233.193 227.408,233.473 229.104 C 233.592 229.821,233.849 230.506,234.044 230.627 C 234.240 230.748,234.400 231.456,234.400 232.200 C 234.400 232.944,234.580 233.664,234.800 233.800 C 235.020 233.936,235.205 234.442,235.211 234.924 C 235.217 235.406,235.541 236.761,235.931 237.935 C 236.704 240.264,237.600 239.657,237.600 236.805 C 237.600 236.168,237.780 235.536,238.000 235.400 C 238.220 235.264,238.400 234.544,238.400 233.800 C 238.400 233.056,238.580 232.336,238.800 232.200 C 239.020 232.064,239.200 231.432,239.200 230.795 C 239.200 230.159,239.362 229.224,239.560 228.719 C 239.895 227.862,240.822 224.444,241.599 221.200 C 241.783 220.430,242.129 219.035,242.367 218.100 C 242.605 217.165,242.980 215.680,243.200 214.800 C 243.420 213.920,243.795 212.435,244.033 211.500 C 244.271 210.565,244.623 209.170,244.814 208.400 C 245.005 207.630,245.453 205.920,245.809 204.600 C 246.165 203.280,246.623 201.525,246.828 200.700 C 247.033 199.875,247.395 198.435,247.633 197.500 C 247.871 196.565,248.217 195.170,248.401 194.400 C 249.862 188.300,249.758 188.400,254.619 188.400 C 259.226 188.400,259.770 188.966,260.681 194.704 C 260.795 195.421,261.049 196.106,261.244 196.227 C 261.440 196.348,261.600 196.979,261.600 197.629 C 261.600 198.279,261.765 199.123,261.967 199.505 C 262.169 199.887,262.817 202.000,263.408 204.200 C 264.000 206.400,264.644 208.613,264.842 209.119 C 265.039 209.624,265.200 210.469,265.200 210.995 C 265.200 211.522,265.360 212.052,265.556 212.173 C 265.751 212.294,266.013 212.979,266.137 213.696 C 266.660 216.725,266.917 217.823,267.191 218.200 C 267.351 218.420,267.812 219.950,268.215 221.600 C 268.618 223.250,269.095 224.771,269.274 224.980 C 269.453 225.189,269.600 225.943,269.600 226.656 C 269.600 227.369,269.760 228.052,269.956 228.173 C 270.151 228.294,270.409 228.979,270.527 229.696 C 270.844 231.610,271.232 233.318,271.505 234.000 C 271.638 234.330,272.147 235.950,272.637 237.600 C 273.127 239.250,273.544 240.206,273.564 239.724 C 273.584 239.242,273.780 238.736,274.000 238.600 C 274.220 238.464,274.400 237.744,274.400 237.000 C 274.400 236.256,274.580 235.536,274.800 235.400 C 275.020 235.264,275.200 234.544,275.200 233.800 C 275.200 233.056,275.360 232.348,275.556 232.227 C 275.751 232.106,276.005 231.421,276.119 230.704 C 276.232 229.987,276.503 228.770,276.720 228.000 C 276.937 227.230,277.421 225.520,277.796 224.200 C 278.171 222.880,278.640 221.125,278.839 220.300 C 279.037 219.475,279.380 218.080,279.600 217.200 C 279.820 216.320,280.167 214.925,280.372 214.100 C 281.387 210.005,282.671 205.595,282.921 205.346 C 283.074 205.192,283.200 204.477,283.200 203.757 C 283.200 203.037,283.361 202.348,283.558 202.226 C 283.755 202.105,284.001 201.329,284.105 200.503 C 284.366 198.423,286.333 191.279,287.078 189.700 L 287.691 188.400 291.432 188.400 C 296.563 188.400,296.770 188.927,294.424 196.000 C 294.242 196.550,293.871 197.810,293.600 198.800 C 293.329 199.790,292.969 201.050,292.800 201.600 C 292.631 202.150,292.299 203.320,292.062 204.200 C 291.825 205.080,291.173 207.330,290.612 209.200 C 290.051 211.070,289.396 213.320,289.155 214.200 C 288.914 215.080,288.555 216.213,288.358 216.719 C 288.161 217.224,288.000 218.069,288.000 218.595 C 288.000 219.122,287.840 219.652,287.644 219.773 C 287.449 219.894,287.196 220.579,287.084 221.296 C 286.828 222.926,285.250 228.363,284.763 229.295 C 284.563 229.677,284.400 230.431,284.400 230.971 C 284.400 231.511,284.220 232.064,284.000 232.200 C 283.780 232.336,283.600 232.966,283.600 233.600 C 283.600 234.234,283.440 234.852,283.244 234.973 C 283.049 235.094,282.802 235.779,282.697 236.496 C 282.467 238.059,280.875 243.517,280.363 244.495 C 280.163 244.877,280.000 245.631,280.000 246.171 C 280.000 246.711,279.820 247.264,279.600 247.400 C 279.380 247.536,279.200 248.055,279.200 248.554 C 279.200 250.530,277.558 251.341,273.498 251.372 C 268.013 251.414,266.400 250.502,266.400 247.362 C 266.400 246.859,266.240 246.348,266.044 246.227 C 265.849 246.106,265.595 245.421,265.481 244.704 C 265.276 243.412,265.079 242.665,263.818 238.400 C 262.567 234.171,262.344 233.390,261.991 232.000 C 261.796 231.230,261.524 230.060,261.388 229.400 C 261.251 228.740,260.987 227.840,260.800 227.400 C 260.613 226.960,260.372 226.150,260.263 225.600 C 260.155 225.050,259.580 222.980,258.985 221.000 C 258.391 219.020,257.816 216.813,257.708 216.096 C 257.600 215.379,257.351 214.694,257.156 214.573 C 256.960 214.452,256.800 213.834,256.800 213.200 C 256.800 212.566,256.620 211.936,256.400 211.800 C 256.180 211.664,256.000 210.963,256.000 210.243 C 256.000 209.523,255.866 208.800,255.703 208.636 C 255.540 208.473,255.225 207.620,255.003 206.740 C 254.344 204.126,253.806 204.666,252.947 208.800 C 252.833 209.350,252.586 210.160,252.397 210.600 C 252.209 211.040,251.963 211.940,251.852 212.600 C 251.573 214.250,250.998 216.588,250.228 219.200 C 249.871 220.410,249.470 222.079,249.336 222.910 C 249.202 223.740,248.936 224.516,248.746 224.633 C 248.556 224.751,248.400 225.456,248.400 226.200 C 248.400 226.944,248.220 227.664,248.000 227.800 C 247.780 227.936,247.600 228.656,247.600 229.400 C 247.600 230.144,247.439 230.852,247.242 230.974 C 247.045 231.095,246.800 231.871,246.696 232.697 C 246.592 233.524,246.014 235.910,245.410 238.000 C 244.807 240.090,244.224 242.476,244.114 243.303 C 244.005 244.129,243.755 244.905,243.558 245.026 C 243.361 245.148,243.200 245.608,243.200 246.048 C 243.200 250.310,241.725 251.400,235.961 251.399 C 231.262 251.399,229.600 250.139,229.600 246.575 C 229.600 246.065,229.420 245.536,229.200 245.400 C 228.980 245.264,228.800 244.711,228.800 244.171 C 228.800 243.631,228.635 242.877,228.433 242.495 C 228.231 242.113,227.584 240.000,226.994 237.800 C 226.405 235.600,225.760 233.487,225.561 233.105 C 225.362 232.723,225.200 231.969,225.200 231.429 C 225.200 230.889,225.040 230.348,224.844 230.227 C 224.649 230.106,224.395 229.421,224.281 228.704 C 224.078 227.424,223.918 226.825,222.600 222.400 C 221.924 220.131,221.507 218.690,220.777 216.100 C 220.545 215.275,220.168 213.970,219.940 213.200 C 219.712 212.430,219.432 211.213,219.319 210.496 C 219.205 209.779,218.951 209.094,218.756 208.973 C 218.560 208.852,218.400 208.320,218.400 207.790 C 218.400 207.260,218.152 206.236,217.848 205.514 C 216.991 203.474,216.400 201.426,216.400 200.495 C 216.400 200.029,216.220 199.536,216.000 199.400 C 215.780 199.264,215.600 198.634,215.600 198.000 C 215.600 197.366,215.440 196.748,215.244 196.627 C 215.049 196.506,214.792 195.821,214.673 195.104 C 214.555 194.387,214.277 192.990,214.055 192.000 C 213.295 188.599,213.512 188.400,217.981 188.400 C 221.190 188.400,221.984 188.523,222.489 189.100 M174.758 195.946 C 169.394 197.096,163.892 202.630,162.574 208.200 C 162.417 208.860,162.158 209.580,161.997 209.800 C 160.802 211.433,160.834 228.929,162.035 230.180 C 162.236 230.389,162.405 230.929,162.411 231.380 C 162.461 235.059,168.649 242.800,171.540 242.800 C 171.925 242.800,172.411 242.956,172.620 243.147 C 174.353 244.727,183.520 244.339,187.646 242.511 C 191.062 240.997,196.400 234.319,196.400 231.560 C 196.400 231.168,196.557 230.750,196.750 230.631 C 198.061 229.821,198.061 209.379,196.750 208.569 C 196.557 208.450,196.400 207.923,196.400 207.398 C 196.400 204.107,189.810 196.800,186.842 196.800 C 186.467 196.800,185.966 196.606,185.730 196.370 C 185.204 195.844,176.757 195.518,174.758 195.946 M75.470 240.899 C 78.133 243.561,76.751 250.396,73.332 251.474 C 67.769 253.227,63.210 247.443,66.100 242.299 C 67.497 239.813,73.489 238.918,75.470 240.899 " stroke="none" fill="#fbfbfb" fill-rule="evenodd"></path><path id="path1" d="M175.800 188.601 C 170.305 189.403,168.626 189.962,164.732 192.285 C 161.693 194.098,157.200 198.691,157.200 199.984 C 157.200 200.213,157.033 200.400,156.829 200.400 C 156.405 200.400,154.064 206.202,153.520 208.600 C 150.109 223.659,152.854 237.749,160.663 245.264 C 162.662 247.188,167.499 250.000,168.810 250.000 C 169.218 250.000,169.650 250.157,169.769 250.350 C 170.660 251.792,184.119 251.650,188.733 250.150 C 194.601 248.243,203.200 240.827,203.200 237.673 C 203.200 237.469,203.589 236.424,204.064 235.351 C 207.614 227.334,207.566 210.726,203.969 202.400 C 202.155 198.202,198.545 193.935,195.197 192.034 C 192.632 190.577,190.411 189.600,189.666 189.600 C 189.215 189.600,188.753 189.447,188.637 189.260 C 188.521 189.073,187.073 188.805,185.418 188.665 C 183.764 188.525,181.733 188.335,180.905 188.243 C 180.077 188.151,177.780 188.312,175.800 188.601 M131.900 189.429 L 130.800 190.026 130.800 214.613 C 130.800 228.954,130.650 239.200,130.439 239.200 C 130.241 239.200,129.465 237.985,128.716 236.500 C 127.967 235.015,126.122 231.460,124.617 228.600 C 123.112 225.740,120.849 221.420,119.589 219.000 C 117.381 214.760,116.293 212.723,113.714 208.000 C 112.491 205.759,109.994 201.087,107.511 196.391 C 105.445 192.483,104.091 190.584,102.927 189.961 C 101.487 189.190,93.992 189.181,93.064 189.949 C 92.069 190.771,92.039 250.176,93.033 250.557 C 93.381 250.691,94.793 250.800,96.171 250.800 C 100.429 250.800,100.096 253.135,99.951 224.326 C 99.882 210.617,99.974 199.161,100.155 198.869 C 100.379 198.509,101.552 200.449,103.785 204.869 C 105.599 208.461,107.536 212.210,108.089 213.200 C 108.642 214.190,110.041 216.800,111.197 219.000 C 112.354 221.200,113.433 223.180,113.596 223.400 C 113.759 223.620,114.933 225.780,116.204 228.200 C 120.217 235.838,121.077 237.440,121.701 238.433 C 122.034 238.965,123.240 241.200,124.380 243.400 C 127.584 249.586,129.098 250.800,133.607 250.800 C 135.974 250.800,136.416 250.675,137.345 249.745 L 138.400 248.691 138.397 219.245 L 138.394 189.800 137.317 189.300 C 135.877 188.631,133.255 188.694,131.900 189.429 M214.851 189.160 C 214.266 189.531,214.364 190.960,215.163 193.700 C 215.403 194.525,215.790 195.875,216.023 196.700 C 217.007 200.195,217.616 202.297,218.600 205.600 C 219.548 208.781,220.007 210.415,220.400 212.000 C 220.904 214.034,221.369 215.690,222.762 220.400 C 223.444 222.710,224.203 225.320,224.448 226.200 C 224.693 227.080,225.031 228.250,225.200 228.800 C 225.369 229.350,225.706 230.520,225.949 231.400 C 226.672 234.022,227.495 236.835,228.373 239.684 C 228.828 241.160,229.200 242.724,229.200 243.160 C 229.200 243.596,229.380 244.064,229.600 244.200 C 229.820 244.336,230.003 244.842,230.006 245.324 C 230.034 249.344,231.731 250.800,236.392 250.800 C 241.278 250.800,241.468 250.620,242.935 244.600 C 243.524 242.180,244.473 238.490,245.043 236.400 C 245.612 234.310,246.249 231.880,246.458 231.000 C 246.666 230.120,247.008 228.725,247.218 227.900 C 247.428 227.075,247.762 225.725,247.961 224.900 C 249.207 219.712,250.082 216.510,250.416 215.905 C 250.627 215.523,250.800 214.679,250.800 214.029 C 250.800 213.379,250.980 212.736,251.200 212.600 C 251.420 212.464,251.600 211.922,251.600 211.395 C 251.600 210.869,251.764 210.024,251.964 209.519 C 252.165 209.013,252.639 207.191,253.018 205.468 C 253.820 201.830,254.447 201.879,255.483 205.663 C 255.805 206.839,256.233 208.385,256.434 209.100 C 256.635 209.815,256.964 210.985,257.164 211.700 C 258.482 216.408,259.293 219.282,259.846 221.200 C 260.194 222.410,260.565 223.850,260.670 224.400 C 260.775 224.950,261.013 225.760,261.200 226.200 C 261.387 226.640,261.631 227.450,261.742 228.000 C 261.853 228.550,262.121 229.630,262.336 230.400 C 264.001 236.352,264.847 239.341,266.072 243.600 C 266.293 244.370,266.568 245.587,266.681 246.304 C 266.795 247.021,267.049 247.706,267.244 247.827 C 267.440 247.948,267.600 248.369,267.600 248.762 C 267.600 250.319,268.845 250.800,272.877 250.800 C 277.066 250.800,278.800 249.911,278.800 247.764 C 278.800 247.255,278.961 246.424,279.158 245.919 C 279.355 245.413,279.739 244.190,280.010 243.200 C 280.282 242.210,280.732 240.680,281.010 239.800 C 281.289 238.920,281.736 237.390,282.004 236.400 C 282.272 235.410,282.637 234.240,282.815 233.800 C 282.994 233.360,283.231 232.550,283.342 232.000 C 283.453 231.450,283.737 230.325,283.972 229.500 C 284.399 228.005,284.584 227.372,285.818 223.200 C 287.238 218.397,288.019 215.582,288.258 214.400 C 288.369 213.850,288.607 213.040,288.787 212.600 C 289.242 211.484,290.847 206.010,291.073 204.800 C 291.176 204.250,291.402 203.440,291.575 203.000 C 292.265 201.243,292.800 199.302,292.800 198.552 C 292.800 198.116,292.950 197.589,293.133 197.380 C 293.770 196.653,294.925 190.953,294.654 189.873 C 294.002 187.274,287.602 188.677,287.090 191.532 C 286.984 192.119,286.409 194.400,285.811 196.600 C 285.214 198.800,284.576 201.230,284.394 202.000 C 283.949 203.883,282.635 208.851,281.801 211.800 C 281.047 214.469,280.560 216.401,280.188 218.200 C 280.051 218.860,279.787 219.760,279.600 220.200 C 279.413 220.640,279.149 221.540,279.012 222.200 C 278.608 224.156,278.118 226.062,277.418 228.400 C 276.585 231.182,275.740 234.445,274.856 238.300 C 274.202 241.149,272.809 243.177,272.795 241.300 C 272.792 240.915,272.411 239.430,271.948 238.000 C 271.485 236.570,270.959 234.770,270.780 234.000 C 270.600 233.230,270.249 231.880,270.000 231.000 C 269.751 230.120,269.391 228.770,269.200 228.000 C 269.009 227.230,268.672 225.970,268.452 225.200 C 266.611 218.786,265.872 216.014,265.706 214.896 C 265.599 214.179,265.351 213.494,265.156 213.373 C 264.960 213.252,264.800 212.634,264.800 212.000 C 264.800 211.366,264.640 210.748,264.444 210.627 C 264.249 210.506,264.000 209.821,263.893 209.104 C 263.785 208.387,263.302 206.450,262.818 204.800 C 262.335 203.150,261.668 200.810,261.335 199.600 C 261.003 198.390,260.582 196.860,260.400 196.200 C 260.218 195.540,259.776 193.925,259.417 192.612 C 258.469 189.143,258.035 188.797,254.638 188.813 C 250.457 188.831,250.484 188.789,248.000 199.200 C 247.452 201.497,246.769 204.122,246.387 205.400 C 246.075 206.443,245.618 208.231,243.985 214.800 C 243.793 215.570,243.457 216.920,243.237 217.800 C 243.017 218.680,242.662 220.120,242.448 221.000 C 242.235 221.880,241.767 223.680,241.408 225.000 C 240.674 227.705,240.227 229.426,239.618 231.900 C 239.388 232.835,239.020 234.320,238.800 235.200 C 238.580 236.080,238.245 237.475,238.056 238.300 C 237.265 241.746,236.264 242.839,235.857 240.700 C 235.721 239.985,235.321 238.410,234.967 237.200 C 234.613 235.990,234.161 234.325,233.962 233.500 C 233.018 229.588,232.901 229.146,231.392 223.800 C 229.979 218.798,229.387 216.530,228.988 214.600 C 228.851 213.940,228.587 213.040,228.400 212.600 C 228.213 212.160,227.975 211.350,227.871 210.800 C 227.766 210.250,227.200 208.090,226.612 206.000 C 226.023 203.910,225.387 201.570,225.198 200.800 C 225.008 200.030,224.649 198.680,224.400 197.800 C 224.151 196.920,223.791 195.570,223.600 194.800 C 222.095 188.726,222.158 188.798,218.404 188.806 C 216.752 188.809,215.153 188.969,214.851 189.160 M184.640 195.198 C 186.212 195.561,188.547 196.547,190.905 197.842 C 192.751 198.855,196.225 204.001,197.089 207.000 C 198.374 211.463,198.533 212.853,198.526 219.552 C 198.519 226.188,197.993 230.813,197.137 231.780 C 196.952 231.989,196.800 232.488,196.800 232.888 C 196.800 233.288,196.350 234.329,195.800 235.200 C 195.250 236.071,194.800 236.928,194.800 237.105 C 194.800 237.889,190.052 242.106,188.222 242.947 C 184.768 244.535,183.476 244.800,179.200 244.800 C 172.505 244.800,168.544 243.077,164.795 238.534 C 163.914 237.466,162.153 233.654,161.685 231.800 C 160.557 227.332,160.400 225.917,160.400 220.200 C 160.400 214.232,160.580 212.766,161.895 208.000 C 163.071 203.743,166.211 199.271,169.056 197.804 C 169.905 197.366,170.690 196.907,170.800 196.783 C 171.087 196.461,173.655 195.314,174.600 195.086 C 176.053 194.735,182.970 194.813,184.640 195.198 M68.144 241.218 C 65.995 242.595,65.770 248.833,67.820 250.176 C 71.504 252.590,76.000 250.269,76.000 245.955 C 76.000 240.981,72.143 238.656,68.144 241.218 " stroke="none" fill="#070707" fill-rule="evenodd"></path><path id="path2" d="M174.200 188.002 C 173.705 188.216,174.390 188.260,176.000 188.118 C 177.430 187.992,178.675 187.823,178.767 187.744 C 179.120 187.439,174.958 187.674,174.200 188.002 M181.633 187.744 C 181.725 187.823,182.970 188.002,184.400 188.140 C 186.149 188.310,186.804 188.265,186.400 188.002 C 185.859 187.651,181.235 187.400,181.633 187.744 M92.922 189.429 L 91.800 190.458 93.051 189.590 C 94.172 188.812,94.718 188.736,98.313 188.861 C 100.520 188.937,102.241 188.865,102.139 188.700 C 101.581 187.801,94.048 188.397,92.922 189.429 M130.792 189.010 C 130.514 189.345,130.402 189.735,130.543 189.876 C 130.684 190.018,130.800 189.938,130.800 189.700 C 130.800 189.462,131.295 189.086,131.900 188.865 C 132.835 188.523,132.873 188.458,132.149 188.432 C 131.681 188.414,131.070 188.674,130.792 189.010 M137.000 188.689 C 137.440 188.798,138.070 189.092,138.400 189.343 C 138.922 189.740,138.928 189.709,138.451 189.100 C 138.149 188.715,137.519 188.421,137.051 188.446 C 136.243 188.490,136.240 188.503,137.000 188.689 M169.500 189.036 C 167.313 189.828,165.491 190.825,165.753 191.086 C 165.878 191.212,166.261 191.081,166.604 190.797 C 166.946 190.513,168.435 189.865,169.913 189.357 C 171.391 188.849,172.240 188.447,171.800 188.464 C 171.360 188.480,170.325 188.738,169.500 189.036 M190.487 189.357 C 191.965 189.865,193.454 190.513,193.796 190.797 C 194.139 191.081,194.508 191.225,194.617 191.116 C 194.726 191.008,193.956 190.504,192.907 189.996 C 191.858 189.489,190.687 188.922,190.305 188.737 C 189.923 188.552,189.203 188.408,188.705 188.417 C 188.207 188.426,189.009 188.849,190.487 189.357 M221.841 188.973 C 222.335 189.320,222.872 190.431,223.194 191.776 C 223.488 193.002,223.815 193.919,223.920 193.814 C 224.598 193.135,222.437 188.400,221.449 188.400 C 221.214 188.400,221.390 188.658,221.841 188.973 M250.516 188.720 C 249.857 189.138,248.794 191.763,248.827 192.887 C 248.842 193.389,249.094 192.907,249.386 191.817 C 249.679 190.726,250.317 189.511,250.804 189.117 C 251.675 188.411,251.462 188.119,250.516 188.720 M257.900 188.812 C 258.395 189.011,258.803 189.225,258.806 189.287 C 258.843 189.988,259.969 192.395,259.981 191.800 C 260.005 190.607,258.514 188.396,257.706 188.425 C 257.158 188.445,257.201 188.532,257.900 188.812 M287.269 189.239 C 286.550 190.389,286.822 190.425,287.886 189.320 C 288.376 188.810,288.553 188.400,288.282 188.400 C 288.013 188.400,287.557 188.778,287.269 189.239 M294.500 188.676 C 295.415 188.915,295.752 190.347,295.222 191.742 C 294.990 192.352,294.813 193.155,294.828 193.526 C 294.843 193.897,295.128 193.314,295.460 192.230 C 296.144 190.003,295.732 188.366,294.509 188.446 C 293.841 188.490,293.841 188.504,294.500 188.676 M103.320 189.643 C 103.716 189.874,104.571 190.795,105.220 191.691 C 105.869 192.587,106.400 193.145,106.400 192.932 C 106.400 192.330,103.596 189.198,103.069 189.212 C 102.811 189.219,102.924 189.413,103.320 189.643 M130.185 209.800 C 130.185 220.580,130.237 224.933,130.300 219.472 C 130.363 214.012,130.363 205.192,130.300 199.872 C 130.237 194.553,130.185 199.020,130.185 209.800 M138.990 219.000 C 138.990 234.840,139.039 241.262,139.100 233.271 C 139.160 225.279,139.160 212.319,139.100 204.471 C 139.039 196.622,138.990 203.160,138.990 219.000 M91.505 191.600 C 91.343 192.150,91.208 205.487,91.205 221.238 C 91.200 252.243,91.134 251.276,93.231 251.172 C 93.556 251.156,93.457 251.010,93.000 250.832 C 92.212 250.524,92.197 250.055,92.000 220.560 C 91.890 204.082,91.667 191.050,91.505 191.600 M286.229 191.829 C 286.081 192.415,286.051 192.984,286.161 193.094 C 286.271 193.204,286.481 192.815,286.629 192.229 C 286.776 191.642,286.806 191.073,286.696 190.963 C 286.586 190.853,286.376 191.242,286.229 191.829 M163.642 192.031 C 162.195 192.913,160.965 194.000,161.414 194.000 C 161.563 194.000,162.181 193.595,162.789 193.100 C 163.396 192.605,164.232 191.986,164.646 191.724 C 165.061 191.461,165.310 191.237,165.200 191.225 C 165.090 191.213,164.389 191.576,163.642 192.031 M199.183 194.718 C 200.622 196.214,201.880 197.379,201.978 197.308 C 202.181 197.159,197.143 192.000,196.795 192.000 C 196.669 192.000,197.744 193.223,199.183 194.718 M260.244 193.800 C 260.573 195.271,260.802 195.590,260.794 194.567 C 260.791 194.145,260.605 193.530,260.382 193.200 C 260.085 192.762,260.048 192.924,260.244 193.800 M285.231 195.631 C 284.947 196.740,284.790 197.723,284.883 197.817 C 284.976 197.910,285.285 197.078,285.569 195.969 C 285.853 194.860,286.010 193.877,285.917 193.783 C 285.824 193.690,285.515 194.522,285.231 195.631 M248.249 194.615 C 248.112 194.973,248.015 195.566,248.034 195.933 C 248.053 196.300,248.227 196.069,248.421 195.420 C 248.798 194.158,248.665 193.533,248.249 194.615 M159.555 195.500 C 158.281 196.908,157.456 198.000,157.666 198.000 C 157.757 198.000,158.508 197.190,159.335 196.200 C 160.987 194.224,161.135 193.753,159.555 195.500 M224.244 195.400 C 224.573 196.871,224.802 197.190,224.794 196.167 C 224.791 195.745,224.605 195.130,224.382 194.800 C 224.085 194.362,224.048 194.524,224.244 195.400 M294.200 195.200 C 294.050 195.673,294.017 196.150,294.127 196.260 C 294.237 196.370,294.450 196.073,294.600 195.600 C 294.750 195.127,294.783 194.650,294.673 194.540 C 294.563 194.430,294.350 194.727,294.200 195.200 M214.828 195.476 C 214.813 195.958,214.980 196.464,215.200 196.600 C 215.673 196.892,215.673 196.501,215.200 195.400 C 214.869 194.629,214.855 194.631,214.828 195.476 M174.800 195.568 C 174.030 195.720,173.040 196.054,172.600 196.310 C 171.585 196.901,172.175 196.948,173.267 196.364 C 173.715 196.124,175.999 195.790,178.341 195.622 C 182.502 195.323,182.526 195.316,179.400 195.304 C 177.640 195.297,175.570 195.416,174.800 195.568 M184.000 195.893 C 184.770 195.983,185.571 196.224,185.780 196.429 C 185.989 196.633,186.529 196.793,186.980 196.784 C 187.581 196.773,187.441 196.613,186.454 196.184 C 185.714 195.863,184.544 195.629,183.854 195.664 C 182.605 195.728,182.606 195.729,184.000 195.893 M260.828 196.276 C 260.918 197.315,261.544 198.196,261.572 197.324 C 261.587 196.842,261.420 196.336,261.200 196.200 C 260.980 196.064,260.813 196.098,260.828 196.276 M109.225 198.694 C 109.952 200.065,110.612 201.122,110.692 201.041 C 110.864 200.869,108.879 197.179,108.303 196.600 C 108.084 196.380,108.499 197.322,109.225 198.694 M247.449 197.815 C 247.312 198.173,247.215 198.766,247.234 199.133 C 247.253 199.500,247.427 199.269,247.621 198.620 C 247.998 197.358,247.865 196.733,247.449 197.815 M293.400 198.000 C 293.250 198.473,293.217 198.950,293.327 199.060 C 293.437 199.170,293.650 198.873,293.800 198.400 C 293.950 197.927,293.983 197.450,293.873 197.340 C 293.763 197.230,293.550 197.527,293.400 198.000 M215.628 198.276 C 215.613 198.758,215.780 199.264,216.000 199.400 C 216.473 199.692,216.473 199.301,216.000 198.200 C 215.669 197.429,215.655 197.431,215.628 198.276 M202.645 199.012 C 203.010 199.569,203.386 199.947,203.482 199.851 C 203.719 199.614,202.684 198.000,202.295 198.000 C 202.122 198.000,202.280 198.456,202.645 199.012 M166.780 200.176 C 165.833 201.152,164.884 202.277,164.671 202.676 C 164.457 203.074,164.364 203.310,164.465 203.200 C 164.565 203.090,165.608 201.965,166.782 200.700 C 169.287 198.000,169.286 197.590,166.780 200.176 M191.803 199.594 C 192.461 200.360,193.111 201.080,193.246 201.194 C 193.381 201.307,194.073 202.435,194.784 203.700 C 195.495 204.965,196.161 206.000,196.265 206.000 C 196.816 206.000,193.571 200.955,192.203 199.684 L 190.605 198.200 191.803 199.594 M284.249 199.015 C 284.112 199.373,284.016 200.056,284.036 200.533 C 284.062 201.147,284.185 201.008,284.459 200.056 C 284.857 198.672,284.694 197.858,284.249 199.015 M100.267 199.467 C 100.120 199.613,100.000 211.139,100.000 225.080 L 100.000 250.426 99.100 250.788 C 98.491 251.032,98.410 251.157,98.851 251.175 C 100.347 251.233,100.380 250.702,100.491 224.669 C 100.551 210.661,100.585 199.200,100.567 199.200 C 100.548 199.200,100.413 199.320,100.267 199.467 M292.846 200.067 C 292.821 200.434,292.696 201.064,292.570 201.467 C 292.352 202.162,292.363 202.163,292.797 201.487 C 293.048 201.096,293.173 200.466,293.073 200.087 C 292.911 199.468,292.888 199.466,292.846 200.067 M216.441 200.572 C 216.394 201.460,217.041 203.657,217.863 205.400 C 218.174 206.060,218.312 206.240,218.168 205.800 C 218.025 205.360,217.737 204.370,217.528 203.600 C 216.566 200.054,216.481 199.817,216.441 200.572 M203.613 200.454 C 203.606 200.594,203.869 201.224,204.198 201.854 C 204.526 202.484,204.796 202.719,204.798 202.376 C 204.800 201.790,203.640 199.908,203.613 200.454 M246.673 200.953 C 246.523 201.345,246.411 201.966,246.425 202.333 C 246.442 202.775,246.581 202.674,246.837 202.034 C 247.049 201.503,247.161 200.882,247.085 200.654 C 247.009 200.427,246.824 200.561,246.673 200.953 M283.467 202.267 C 283.320 202.413,283.211 202.908,283.225 203.367 C 283.249 204.133,283.282 204.123,283.634 203.242 C 284.026 202.263,283.944 201.789,283.467 202.267 M154.070 204.331 C 153.591 205.390,153.208 206.513,153.217 206.828 C 153.226 207.143,153.676 206.335,154.217 205.033 C 155.404 202.172,155.291 201.629,154.070 204.331 M292.046 202.867 C 292.021 203.234,291.896 203.864,291.770 204.267 C 291.552 204.962,291.563 204.963,291.997 204.287 C 292.248 203.896,292.373 203.266,292.273 202.887 C 292.111 202.268,292.088 202.266,292.046 202.867 M226.566 204.000 C 226.964 206.346,228.175 210.474,228.330 210.011 C 228.494 209.518,228.055 207.798,226.950 204.600 C 226.645 203.720,226.473 203.450,226.566 204.000 M163.657 204.457 C 163.375 204.909,163.232 205.366,163.340 205.473 C 163.447 205.581,163.744 205.278,164.000 204.800 C 164.256 204.322,164.398 203.865,164.317 203.784 C 164.236 203.703,163.939 204.006,163.657 204.457 M245.800 204.400 C 245.650 204.873,245.617 205.350,245.727 205.460 C 245.837 205.570,246.050 205.273,246.200 204.800 C 246.350 204.327,246.383 203.850,246.273 203.740 C 246.163 203.630,245.950 203.927,245.800 204.400 M253.600 204.424 C 253.600 204.877,253.782 205.135,254.003 204.998 C 254.225 204.861,254.574 205.165,254.778 205.674 C 254.982 206.183,255.161 206.383,255.175 206.119 C 255.212 205.407,254.324 203.600,253.936 203.600 C 253.751 203.600,253.600 203.971,253.600 204.424 M263.206 204.633 C 263.209 205.055,263.395 205.670,263.618 206.000 C 263.915 206.438,263.952 206.276,263.756 205.400 C 263.427 203.929,263.198 203.610,263.206 204.633 M103.200 205.349 C 103.200 205.781,104.789 208.800,105.016 208.800 C 105.126 208.800,104.830 208.035,104.359 207.100 C 103.432 205.261,103.200 204.911,103.200 205.349 M205.868 206.600 C 206.171 208.577,206.402 208.914,206.394 207.367 C 206.391 206.725,206.216 205.930,206.005 205.600 C 205.745 205.191,205.701 205.510,205.868 206.600 M290.867 207.067 C 290.596 208.079,290.445 208.979,290.532 209.065 C 290.619 209.152,290.919 208.403,291.200 207.400 C 291.481 206.397,291.631 205.498,291.535 205.401 C 291.438 205.305,291.137 206.054,290.867 207.067 M113.262 206.200 C 113.724 207.477,116.482 212.451,116.641 212.293 C 116.745 212.189,116.255 211.045,115.552 209.752 C 114.317 207.477,112.966 205.382,113.262 206.200 M253.000 206.800 C 252.850 207.273,252.817 207.750,252.927 207.860 C 253.037 207.970,253.250 207.673,253.400 207.200 C 253.550 206.727,253.583 206.250,253.473 206.140 C 253.363 206.030,253.150 206.327,253.000 206.800 M196.428 207.476 C 196.413 207.958,196.580 208.464,196.800 208.600 C 197.273 208.892,197.273 208.501,196.800 207.400 C 196.469 206.629,196.455 206.631,196.428 207.476 M264.047 207.400 C 264.028 207.840,264.287 208.920,264.622 209.800 C 265.239 211.417,265.164 210.573,264.463 208.000 C 264.247 207.205,264.067 206.946,264.047 207.400 M152.656 208.484 C 152.521 208.988,152.427 209.760,152.446 210.200 C 152.465 210.640,152.645 210.298,152.846 209.440 C 153.236 207.778,153.070 206.940,152.656 208.484 M281.829 208.629 C 281.681 209.215,281.638 209.772,281.732 209.866 C 281.827 209.960,282.024 209.558,282.171 208.971 C 282.319 208.385,282.362 207.828,282.268 207.734 C 282.173 207.640,281.976 208.042,281.829 208.629 M244.649 208.615 C 244.512 208.973,244.418 209.656,244.441 210.133 C 244.467 210.681,244.603 210.486,244.810 209.603 C 245.160 208.116,245.065 207.533,244.649 208.615 M206.434 209.600 C 206.446 209.930,206.611 210.560,206.800 211.000 L 207.144 211.800 207.166 211.000 C 207.178 210.560,207.013 209.930,206.800 209.600 C 206.455 209.067,206.415 209.067,206.434 209.600 M197.228 210.833 C 197.244 211.585,197.420 212.560,197.620 213.000 C 197.865 213.539,197.905 213.146,197.741 211.800 C 197.451 209.419,197.189 208.924,197.228 210.833 M219.234 210.600 C 219.222 211.040,219.387 211.670,219.600 212.000 C 220.114 212.795,220.114 211.796,219.600 210.600 L 219.256 209.800 219.234 210.600 M280.861 212.131 C 280.564 213.140,280.415 214.198,280.529 214.483 C 280.643 214.767,280.751 214.583,280.768 214.074 C 280.786 213.564,280.991 212.790,281.225 212.353 C 281.459 211.916,281.594 211.274,281.525 210.927 C 281.456 210.580,281.157 211.122,280.861 212.131 M243.849 211.815 C 243.712 212.173,243.618 212.856,243.641 213.333 C 243.667 213.881,243.803 213.686,244.010 212.803 C 244.360 211.316,244.265 210.733,243.849 211.815 M151.849 212.215 C 151.712 212.573,151.626 213.886,151.657 215.133 L 151.714 217.400 152.006 214.600 C 152.310 211.688,152.272 211.114,151.849 212.215 M161.018 213.818 C 160.865 214.839,160.830 215.763,160.940 215.873 C 161.050 215.983,161.265 215.239,161.418 214.218 C 161.571 213.198,161.606 212.273,161.496 212.163 C 161.386 212.053,161.171 212.798,161.018 213.818 M265.228 212.276 C 265.318 213.315,265.944 214.196,265.972 213.324 C 265.987 212.842,265.820 212.336,265.600 212.200 C 265.380 212.064,265.213 212.098,265.228 212.276 M117.400 214.000 C 117.741 214.660,118.111 215.200,118.221 215.200 C 118.331 215.200,118.141 214.660,117.800 214.000 C 117.459 213.340,117.089 212.800,116.979 212.800 C 116.869 212.800,117.059 213.340,117.400 214.000 M220.034 213.400 C 220.022 213.840,220.187 214.470,220.400 214.800 C 220.914 215.595,220.914 214.596,220.400 213.400 L 220.056 212.600 220.034 213.400 M256.828 213.476 C 256.813 213.958,256.980 214.464,257.200 214.600 C 257.673 214.892,257.673 214.501,257.200 213.400 C 256.869 212.629,256.855 212.631,256.828 213.476 M229.228 214.276 C 229.318 215.315,229.944 216.196,229.972 215.324 C 229.987 214.842,229.820 214.336,229.600 214.200 C 229.380 214.064,229.213 214.098,229.228 214.276 M243.073 214.953 C 242.923 215.345,242.811 215.966,242.825 216.333 C 242.842 216.775,242.981 216.674,243.237 216.034 C 243.449 215.503,243.561 214.882,243.485 214.654 C 243.409 214.427,243.224 214.561,243.073 214.953 M250.854 215.467 C 250.825 215.944,250.696 216.664,250.570 217.067 C 250.352 217.761,250.364 217.762,250.796 217.088 C 251.047 216.697,251.175 215.977,251.081 215.488 C 250.909 214.601,250.909 214.601,250.854 215.467 M279.873 215.753 C 279.723 216.145,279.611 216.766,279.625 217.133 C 279.642 217.575,279.781 217.474,280.037 216.834 C 280.249 216.303,280.361 215.682,280.285 215.454 C 280.209 215.227,280.024 215.361,279.873 215.753 M198.148 219.600 C 198.148 221.910,198.214 222.855,198.295 221.700 C 198.376 220.545,198.376 218.655,198.295 217.500 C 198.214 216.345,198.148 217.290,198.148 219.600 M220.806 216.233 C 220.809 216.655,220.995 217.270,221.218 217.600 C 221.515 218.038,221.552 217.876,221.356 217.000 C 221.027 215.529,220.798 215.210,220.806 216.233 M257.624 216.000 C 257.617 216.330,257.871 217.320,258.188 218.200 C 258.505 219.080,258.770 219.530,258.776 219.200 C 258.783 218.870,258.529 217.880,258.212 217.000 C 257.895 216.120,257.630 215.670,257.624 216.000 M109.800 218.000 C 110.357 219.100,110.903 220.000,111.013 220.000 C 111.123 220.000,110.757 219.100,110.200 218.000 C 109.643 216.900,109.097 216.000,108.987 216.000 C 108.877 216.000,109.243 216.900,109.800 218.000 M207.340 219.200 C 207.340 221.070,207.409 221.835,207.493 220.900 C 207.577 219.965,207.577 218.435,207.493 217.500 C 207.409 216.565,207.340 217.330,207.340 219.200 M230.012 217.200 C 230.012 217.530,230.187 218.070,230.400 218.400 C 230.745 218.933,230.788 218.933,230.788 218.400 C 230.788 218.070,230.613 217.530,230.400 217.200 C 230.055 216.667,230.012 216.667,230.012 217.200 M242.273 218.153 C 242.123 218.545,242.011 219.166,242.025 219.533 C 242.042 219.975,242.181 219.874,242.437 219.234 C 242.649 218.703,242.761 218.082,242.685 217.854 C 242.609 217.627,242.424 217.761,242.273 218.153 M287.646 218.267 C 287.621 218.524,287.484 219.064,287.341 219.467 C 287.140 220.036,287.194 220.097,287.579 219.742 C 287.852 219.491,287.989 218.951,287.884 218.542 C 287.779 218.134,287.672 218.010,287.646 218.267 M221.606 219.033 C 221.609 219.455,221.795 220.070,222.018 220.400 C 222.315 220.838,222.352 220.676,222.156 219.800 C 221.827 218.329,221.598 218.010,221.606 219.033 M279.049 219.015 C 278.912 219.373,278.815 219.966,278.834 220.333 C 278.853 220.700,279.027 220.469,279.221 219.820 C 279.598 218.558,279.465 217.933,279.049 219.015 M121.000 220.800 C 121.341 221.460,121.711 222.000,121.821 222.000 C 121.931 222.000,121.741 221.460,121.400 220.800 C 121.059 220.140,120.689 219.600,120.579 219.600 C 120.469 219.600,120.659 220.140,121.000 220.800 M230.856 220.000 C 230.856 220.330,231.011 220.960,231.200 221.400 C 231.417 221.904,231.544 221.978,231.544 221.600 C 231.544 221.270,231.389 220.640,231.200 220.200 C 230.983 219.696,230.856 219.622,230.856 220.000 M267.606 220.633 C 267.609 221.055,267.795 221.670,268.018 222.000 C 268.315 222.438,268.352 222.276,268.156 221.400 C 267.827 219.929,267.598 219.610,267.606 220.633 M111.269 220.700 C 112.021 222.364,113.691 225.243,113.825 225.108 C 114.024 224.909,111.641 220.400,111.337 220.400 C 111.225 220.400,111.194 220.535,111.269 220.700 M286.700 221.400 C 286.545 222.060,286.315 223.050,286.188 223.600 C 286.033 224.268,286.168 224.140,286.595 223.215 C 286.946 222.453,287.176 221.463,287.107 221.015 C 287.008 220.381,286.918 220.467,286.700 221.400 M241.400 221.600 C 241.250 222.073,241.217 222.550,241.327 222.660 C 241.437 222.770,241.650 222.473,241.800 222.000 C 241.950 221.527,241.983 221.050,241.873 220.940 C 241.763 220.830,241.550 221.127,241.400 221.600 M122.045 222.605 C 122.539 223.897,124.532 227.602,124.662 227.471 C 124.818 227.316,122.544 222.792,122.116 222.404 C 121.992 222.292,121.960 222.382,122.045 222.605 M231.761 223.200 C 232.171 225.313,232.719 226.972,232.753 226.200 C 232.772 225.760,232.513 224.680,232.178 223.800 C 231.842 222.920,231.655 222.650,231.761 223.200 M222.812 223.200 C 222.812 223.530,222.987 224.070,223.200 224.400 C 223.545 224.933,223.588 224.933,223.588 224.400 C 223.588 224.070,223.413 223.530,223.200 223.200 C 222.855 222.667,222.812 222.667,222.812 223.200 M268.460 223.400 C 268.434 223.840,268.671 224.920,268.988 225.800 C 269.464 227.120,269.568 227.222,269.582 226.380 C 269.592 225.819,269.435 225.189,269.234 224.980 C 269.032 224.771,268.787 224.150,268.688 223.600 C 268.556 222.861,268.496 222.809,268.460 223.400 M151.638 225.600 C 151.624 227.030,151.771 228.450,151.965 228.756 C 152.178 229.093,152.241 228.225,152.126 226.556 C 151.867 222.836,151.669 222.447,151.638 225.600 M160.846 225.400 C 160.915 227.031,161.515 228.387,161.554 227.000 C 161.573 226.340,161.413 225.530,161.200 225.200 C 160.881 224.706,160.818 224.741,160.846 225.400 M114.009 225.900 C 114.014 226.065,114.385 226.650,114.833 227.200 L 115.648 228.200 115.014 226.900 C 114.411 225.665,113.989 225.245,114.009 225.900 M197.476 226.410 C 197.330 226.955,197.228 227.940,197.249 228.600 C 197.280 229.557,197.359 229.436,197.642 228.000 C 198.029 226.033,197.902 224.817,197.476 226.410 M248.046 226.267 C 248.021 226.524,247.884 227.064,247.741 227.467 C 247.540 228.036,247.594 228.097,247.979 227.742 C 248.252 227.491,248.389 226.951,248.284 226.542 C 248.179 226.134,248.072 226.010,248.046 226.267 M206.854 226.867 C 206.825 227.234,206.684 227.864,206.541 228.267 C 206.341 228.833,206.395 228.896,206.775 228.546 C 207.046 228.297,207.187 227.667,207.088 227.146 C 206.990 226.626,206.884 226.500,206.854 226.867 M239.877 227.500 C 239.229 230.539,239.205 231.367,239.820 229.464 C 240.164 228.400,240.380 227.230,240.300 226.864 C 240.216 226.481,240.037 226.750,239.877 227.500 M276.663 227.900 C 276.279 229.796,275.977 231.863,276.152 231.400 C 276.791 229.706,277.266 227.600,277.112 227.146 C 277.010 226.846,276.808 227.185,276.663 227.900 M233.044 228.200 C 233.373 229.671,233.602 229.990,233.594 228.967 C 233.591 228.545,233.405 227.930,233.182 227.600 C 232.885 227.162,232.848 227.324,233.044 228.200 M284.846 227.867 C 284.821 228.124,284.684 228.664,284.541 229.067 C 284.340 229.636,284.394 229.697,284.779 229.342 C 285.052 229.091,285.189 228.551,285.084 228.142 C 284.979 227.734,284.872 227.610,284.846 227.867 M269.628 228.276 C 269.718 229.315,270.344 230.196,270.372 229.324 C 270.387 228.842,270.220 228.336,270.000 228.200 C 269.780 228.064,269.613 228.098,269.628 228.276 M224.428 229.076 C 224.413 229.558,224.580 230.064,224.800 230.200 C 225.273 230.492,225.273 230.101,224.800 229.000 C 224.469 228.229,224.455 228.231,224.428 229.076 M261.206 229.033 C 261.209 229.455,261.395 230.070,261.618 230.400 C 261.915 230.838,261.952 230.676,261.756 229.800 C 261.427 228.329,261.198 228.010,261.206 229.033 M247.246 229.467 C 247.221 229.724,247.084 230.264,246.941 230.667 C 246.740 231.236,246.794 231.297,247.179 230.942 C 247.452 230.691,247.589 230.151,247.484 229.742 C 247.379 229.334,247.272 229.210,247.246 229.467 M206.049 230.400 C 206.016 230.730,205.889 231.450,205.767 232.000 C 205.575 232.864,205.607 232.903,205.999 232.288 C 206.248 231.897,206.375 231.177,206.281 230.688 C 206.186 230.200,206.082 230.070,206.049 230.400 M152.406 231.433 C 152.409 232.075,152.596 232.870,152.821 233.200 C 153.114 233.630,153.154 233.346,152.962 232.200 C 152.630 230.216,152.398 229.896,152.406 231.433 M233.628 230.676 C 233.718 231.715,234.344 232.596,234.372 231.724 C 234.387 231.242,234.220 230.736,234.000 230.600 C 233.780 230.464,233.613 230.498,233.628 230.676 M284.046 230.667 C 284.021 230.924,283.884 231.464,283.741 231.867 C 283.540 232.436,283.594 232.497,283.979 232.142 C 284.252 231.891,284.389 231.351,284.284 230.942 C 284.179 230.534,284.072 230.410,284.046 230.667 M127.652 233.644 C 128.305 234.991,128.919 236.015,129.016 235.918 C 129.232 235.701,127.261 231.685,126.798 231.399 C 126.615 231.286,127.000 232.296,127.652 233.644 M225.228 231.876 C 225.213 232.358,225.380 232.864,225.600 233.000 C 226.073 233.292,226.073 232.901,225.600 231.800 C 225.269 231.029,225.255 231.031,225.228 231.876 M262.028 231.881 C 262.013 232.366,262.161 233.176,262.358 233.681 C 262.555 234.187,262.945 235.366,263.223 236.302 C 263.502 237.238,263.807 237.927,263.901 237.832 C 263.996 237.737,263.877 237.061,263.636 236.330 C 263.396 235.598,262.942 234.100,262.627 233.000 C 262.313 231.900,262.043 231.397,262.028 231.881 M238.667 232.267 C 238.520 232.413,238.411 232.908,238.425 233.367 C 238.449 234.133,238.482 234.123,238.834 233.242 C 239.226 232.263,239.144 231.789,238.667 232.267 M245.658 235.544 C 245.142 237.584,244.794 239.328,244.886 239.419 C 244.977 239.511,245.279 238.644,245.556 237.493 C 245.832 236.342,246.241 234.919,246.465 234.332 C 246.688 233.744,246.809 232.942,246.733 232.549 C 246.658 232.157,246.174 233.505,245.658 235.544 M275.467 232.267 C 275.320 232.413,275.215 232.998,275.234 233.567 C 275.268 234.581,275.275 234.579,275.621 233.420 C 275.985 232.203,275.931 231.802,275.467 232.267 M118.200 233.600 C 118.541 234.260,118.911 234.800,119.021 234.800 C 119.131 234.800,118.941 234.260,118.600 233.600 C 118.259 232.940,117.889 232.400,117.779 232.400 C 117.669 232.400,117.859 232.940,118.200 233.600 M162.422 232.800 C 162.436 233.396,164.347 237.238,164.382 236.740 C 164.392 236.597,163.952 235.517,163.404 234.340 C 162.856 233.163,162.414 232.470,162.422 232.800 M283.246 233.467 C 283.221 233.724,283.084 234.264,282.941 234.667 C 282.740 235.236,282.794 235.297,283.179 234.942 C 283.452 234.691,283.589 234.151,283.484 233.742 C 283.379 233.334,283.272 233.210,283.246 233.467 M153.217 234.251 C 153.208 234.499,153.443 235.309,153.741 236.051 C 154.038 236.793,154.403 237.741,154.550 238.157 C 154.698 238.574,154.904 238.829,155.009 238.724 C 155.114 238.620,154.757 237.469,154.217 236.167 C 153.676 234.865,153.226 234.003,153.217 234.251 M194.646 235.761 C 194.283 236.525,192.864 238.279,191.493 239.660 C 190.122 241.041,189.557 241.780,190.238 241.302 C 192.204 239.923,195.970 235.036,195.460 234.526 C 195.374 234.441,195.008 234.996,194.646 235.761 M204.315 235.810 C 204.192 236.245,203.969 236.960,203.820 237.400 C 203.671 237.840,203.842 237.694,204.200 237.076 C 204.558 236.458,204.781 235.742,204.695 235.486 C 204.610 235.230,204.439 235.376,204.315 235.810 M237.867 235.467 C 237.720 235.613,237.611 236.108,237.625 236.567 C 237.649 237.333,237.682 237.323,238.034 236.442 C 238.426 235.463,238.344 234.989,237.867 235.467 M274.667 235.467 C 274.520 235.613,274.411 236.108,274.425 236.567 C 274.449 237.333,274.482 237.323,274.834 236.442 C 275.226 235.463,275.144 234.989,274.667 235.467 M226.644 236.600 C 226.973 238.071,227.202 238.390,227.194 237.367 C 227.191 236.945,227.005 236.330,226.782 236.000 C 226.485 235.562,226.448 235.724,226.644 236.600 M272.006 236.633 C 272.009 237.055,272.195 237.670,272.418 238.000 C 272.715 238.438,272.752 238.276,272.556 237.400 C 272.227 235.929,271.998 235.610,272.006 236.633 M282.099 237.590 C 281.396 239.842,281.513 240.558,282.243 238.473 C 282.576 237.523,282.792 236.576,282.723 236.369 C 282.654 236.161,282.373 236.711,282.099 237.590 M120.069 237.100 C 120.702 238.499,122.454 241.600,122.612 241.600 C 122.722 241.600,122.266 240.520,121.600 239.200 C 120.934 237.880,120.286 236.800,120.161 236.800 C 120.036 236.800,119.994 236.935,120.069 237.100 M165.600 238.658 C 165.600 238.874,166.185 239.579,166.900 240.225 L 168.200 241.400 167.000 240.002 C 166.340 239.233,165.755 238.528,165.700 238.435 C 165.645 238.343,165.600 238.443,165.600 238.658 M202.637 239.400 C 202.276 239.950,202.137 240.400,202.327 240.400 C 202.516 240.400,202.877 239.950,203.127 239.400 C 203.378 238.850,203.517 238.400,203.437 238.400 C 203.357 238.400,202.997 238.850,202.637 239.400 M236.977 239.270 C 236.693 240.163,236.669 240.168,236.369 239.400 C 236.069 238.633,236.055 238.637,236.028 239.476 C 235.986 240.777,236.616 240.922,237.156 239.736 C 237.417 239.164,237.550 238.616,237.451 238.518 C 237.353 238.420,237.140 238.758,236.977 239.270 M272.806 239.433 C 272.809 239.855,272.995 240.470,273.218 240.800 C 273.515 241.238,273.552 241.076,273.356 240.200 C 273.027 238.729,272.798 238.410,272.806 239.433 M67.549 240.700 C 67.071 241.309,67.078 241.340,67.600 240.935 C 67.930 240.680,68.740 240.392,69.400 240.295 L 70.600 240.120 69.349 240.060 C 68.577 240.023,67.888 240.268,67.549 240.700 M73.200 240.347 C 74.566 240.692,75.387 241.251,75.923 242.200 C 76.172 242.640,76.381 242.767,76.388 242.482 C 76.410 241.522,74.489 239.998,73.318 240.047 C 72.205 240.094,72.205 240.096,73.200 240.347 M157.160 242.439 C 158.466 244.449,162.584 248.413,163.332 248.379 C 163.590 248.367,163.350 248.060,162.800 247.696 C 161.603 246.903,158.165 243.478,156.882 241.800 C 156.378 241.140,156.503 241.428,157.160 242.439 M201.187 241.666 C 200.924 242.180,199.784 243.590,198.654 244.799 L 196.600 246.998 198.533 245.199 C 200.680 243.200,202.199 241.266,201.876 240.943 C 201.760 240.827,201.450 241.152,201.187 241.666 M65.867 242.667 C 65.499 243.035,65.529 248.709,65.900 248.938 C 66.065 249.040,66.200 247.611,66.200 245.762 C 66.200 243.913,66.185 242.400,66.167 242.400 C 66.148 242.400,66.013 242.520,65.867 242.667 M243.646 243.467 C 243.621 243.724,243.484 244.264,243.341 244.667 C 243.140 245.236,243.194 245.297,243.579 244.942 C 243.852 244.691,243.989 244.151,243.884 243.742 C 243.779 243.334,243.672 243.210,243.646 243.467 M174.600 244.023 C 175.480 244.205,176.740 244.342,177.400 244.327 C 178.300 244.307,178.150 244.220,176.800 243.980 C 174.386 243.550,172.494 243.587,174.600 244.023 M182.200 244.000 C 181.130 244.272,181.108 244.305,182.000 244.305 C 182.550 244.305,183.540 244.168,184.200 244.000 C 185.270 243.728,185.292 243.695,184.400 243.695 C 183.850 243.695,182.860 243.832,182.200 244.000 M76.493 245.600 C 76.493 246.370,76.575 246.685,76.676 246.300 C 76.776 245.915,76.776 245.285,76.676 244.900 C 76.575 244.515,76.493 244.830,76.493 245.600 M265.628 245.076 C 265.613 245.558,265.780 246.064,266.000 246.200 C 266.473 246.492,266.473 246.101,266.000 245.000 C 265.669 244.229,265.655 244.231,265.628 245.076 M242.846 246.467 C 242.821 246.834,242.696 247.464,242.570 247.867 C 242.352 248.562,242.363 248.563,242.797 247.887 C 243.048 247.496,243.173 246.866,243.073 246.487 C 242.911 245.868,242.888 245.866,242.846 246.467 M125.200 246.633 C 125.200 248.128,129.597 251.462,131.068 251.082 C 131.646 250.933,131.607 250.883,130.880 250.846 C 129.356 250.770,127.811 249.748,126.619 248.028 C 125.534 246.462,125.200 246.134,125.200 246.633 M229.606 247.033 C 229.609 247.455,229.795 248.070,230.018 248.400 C 230.315 248.838,230.352 248.676,230.156 247.800 C 229.827 246.329,229.598 246.010,229.606 247.033 M266.400 247.776 C 266.400 248.313,266.547 248.844,266.728 248.955 C 266.908 249.067,266.977 248.627,266.882 247.979 C 266.672 246.549,266.400 246.435,266.400 247.776 M75.469 249.751 C 74.762 250.829,71.880 251.656,69.800 251.377 C 68.602 251.216,68.602 251.217,69.925 251.673 C 71.604 252.252,75.131 251.252,75.928 249.971 C 76.673 248.772,76.245 248.567,75.469 249.751 M138.070 249.637 C 137.795 250.077,137.172 250.597,136.685 250.793 C 136.113 251.023,136.023 251.158,136.430 251.175 C 137.080 251.201,139.080 249.346,138.753 249.020 C 138.652 248.919,138.345 249.196,138.070 249.637 M278.470 249.637 C 278.195 250.077,277.572 250.597,277.085 250.793 C 276.513 251.023,276.423 251.158,276.830 251.175 C 277.480 251.201,279.480 249.346,279.153 249.020 C 279.052 248.919,278.745 249.196,278.470 249.637 M165.600 249.435 C 165.600 249.804,169.270 251.200,170.133 251.159 C 170.784 251.128,170.702 251.044,169.800 250.819 C 169.140 250.654,167.925 250.232,167.100 249.880 C 166.275 249.529,165.600 249.328,165.600 249.435 M191.459 249.474 C 191.060 249.874,188.332 250.782,187.400 250.826 C 186.913 250.848,186.809 250.947,187.133 251.076 C 187.757 251.325,191.894 250.095,192.223 249.563 C 192.484 249.141,191.864 249.069,191.459 249.474 M230.400 249.449 C 230.400 250.192,231.911 251.278,232.670 251.081 C 233.270 250.926,233.243 250.885,232.523 250.846 C 232.040 250.821,231.365 250.400,231.023 249.911 C 230.680 249.422,230.400 249.214,230.400 249.449 M241.852 249.810 C 241.723 250.145,241.209 250.583,240.709 250.784 C 240.065 251.043,239.995 251.157,240.471 251.175 C 241.185 251.202,242.400 250.192,242.400 249.571 C 242.400 249.004,242.113 249.129,241.852 249.810 M66.400 249.957 C 66.400 250.464,67.977 251.356,68.301 251.032 C 68.429 250.905,68.336 250.800,68.095 250.800 C 67.854 250.800,67.374 250.517,67.029 250.171 C 66.683 249.826,66.400 249.729,66.400 249.957 M267.200 249.957 C 267.200 250.512,268.722 251.302,269.322 251.058 C 269.592 250.948,269.508 250.849,269.129 250.832 C 268.759 250.814,268.174 250.517,267.829 250.171 C 267.483 249.826,267.200 249.729,267.200 249.957 M95.305 251.487 C 95.914 251.579,96.814 251.577,97.305 251.482 C 97.797 251.387,97.300 251.311,96.200 251.314 C 95.100 251.317,94.697 251.395,95.305 251.487 M171.600 251.588 C 171.930 251.808,172.815 251.991,173.567 251.994 C 175.360 252.002,175.041 251.775,172.800 251.450 C 171.542 251.267,171.181 251.309,171.600 251.588 M184.200 251.600 L 182.600 251.886 184.276 251.943 C 185.198 251.974,186.064 251.820,186.200 251.600 C 186.336 251.380,186.302 251.226,186.124 251.257 C 185.946 251.288,185.080 251.442,184.200 251.600 M234.900 251.491 C 235.725 251.578,237.075 251.578,237.900 251.491 C 238.725 251.405,238.050 251.334,236.400 251.334 C 234.750 251.334,234.075 251.405,234.900 251.491 M271.500 251.489 C 272.215 251.578,273.385 251.578,274.100 251.489 C 274.815 251.401,274.230 251.328,272.800 251.328 C 271.370 251.328,270.785 251.401,271.500 251.489 " stroke="none" fill="#a8a8a8" fill-rule="evenodd"></path><path id="path3" d="M174.600 188.400 C 172.273 188.817,174.740 188.833,177.400 188.418 C 179.299 188.123,179.319 188.107,177.800 188.110 C 176.920 188.112,175.480 188.242,174.600 188.400 M183.000 188.418 C 184.100 188.590,185.630 188.722,186.400 188.712 C 187.533 188.697,187.418 188.634,185.800 188.382 C 184.700 188.210,183.170 188.078,182.400 188.088 C 181.267 188.103,181.382 188.166,183.000 188.418 M216.900 188.687 C 217.505 188.778,218.495 188.778,219.100 188.687 C 219.705 188.595,219.210 188.520,218.000 188.520 C 216.790 188.520,216.295 188.595,216.900 188.687 M253.705 188.687 C 254.314 188.779,255.214 188.777,255.705 188.682 C 256.197 188.587,255.700 188.511,254.600 188.514 C 253.500 188.517,253.097 188.595,253.705 188.687 M290.500 188.687 C 291.105 188.778,292.095 188.778,292.700 188.687 C 293.305 188.595,292.810 188.520,291.600 188.520 C 290.390 188.520,289.895 188.595,290.500 188.687 M93.864 189.100 C 93.763 189.265,95.656 189.407,98.072 189.416 C 100.487 189.425,102.134 189.303,101.732 189.144 C 100.751 188.758,94.096 188.720,93.864 189.100 M131.149 189.465 C 130.647 190.074,130.685 190.087,131.600 189.611 C 132.941 188.914,133.042 188.800,132.316 188.800 C 131.976 188.800,131.451 189.099,131.149 189.465 M170.800 189.200 C 170.267 189.545,170.267 189.588,170.800 189.588 C 171.130 189.588,171.670 189.413,172.000 189.200 C 172.533 188.855,172.533 188.812,172.000 188.812 C 171.670 188.812,171.130 188.987,170.800 189.200 M214.156 189.371 C 214.035 189.685,214.016 190.360,214.114 190.871 C 214.252 191.597,214.303 191.523,214.346 190.533 C 214.375 189.837,214.625 189.176,214.900 189.065 C 215.292 188.907,215.289 188.856,214.887 188.832 C 214.606 188.814,214.276 189.057,214.156 189.371 M250.501 189.300 C 249.989 189.945,249.067 192.800,249.296 193.029 C 249.393 193.126,249.700 192.445,249.978 191.516 C 250.256 190.587,250.780 189.601,251.142 189.326 C 251.504 189.051,251.597 188.820,251.349 188.813 C 251.101 188.806,250.719 189.025,250.501 189.300 M294.680 190.291 C 294.990 192.300,295.200 192.461,295.200 190.690 C 295.200 189.897,295.031 189.143,294.824 189.015 C 294.599 188.876,294.541 189.391,294.680 190.291 M138.590 219.000 C 138.590 235.060,138.639 241.572,138.700 233.471 C 138.760 225.369,138.760 212.229,138.700 204.271 C 138.639 196.312,138.590 202.940,138.590 219.000 M130.585 209.200 C 130.585 219.650,130.636 223.925,130.700 218.700 C 130.763 213.475,130.763 204.925,130.700 199.700 C 130.636 194.475,130.585 198.750,130.585 209.200 M166.646 190.726 C 166.535 190.905,165.640 191.465,164.657 191.971 C 163.674 192.476,162.269 193.534,161.535 194.321 C 160.304 195.641,160.352 195.622,162.156 194.076 C 163.232 193.154,164.277 192.400,164.478 192.400 C 164.678 192.400,165.505 191.950,166.314 191.400 C 167.123 190.850,167.575 190.400,167.316 190.400 C 167.058 190.400,166.757 190.547,166.646 190.726 M192.932 190.691 C 193.047 190.877,193.928 191.422,194.889 191.902 C 195.850 192.382,197.078 193.248,197.618 193.826 C 198.158 194.405,199.140 195.235,199.800 195.670 C 200.460 196.106,200.010 195.548,198.800 194.430 C 196.871 192.649,192.369 189.779,192.932 190.691 M92.196 220.567 C 92.200 246.862,92.274 250.553,92.800 250.697 C 93.242 250.818,93.269 250.768,92.903 250.508 C 92.515 250.234,92.382 243.563,92.299 220.378 L 92.192 190.600 92.196 220.567 M105.447 192.800 C 106.030 193.680,106.584 194.400,106.679 194.400 C 106.774 194.400,106.447 193.680,105.952 192.800 C 105.457 191.920,104.903 191.200,104.721 191.200 C 104.538 191.200,104.865 191.920,105.447 192.800 M214.644 193.000 C 214.973 194.471,215.202 194.790,215.194 193.767 C 215.191 193.345,215.005 192.730,214.782 192.400 C 214.485 191.962,214.448 192.124,214.644 193.000 M294.446 192.867 C 294.421 193.234,294.296 193.864,294.170 194.267 C 293.952 194.962,293.963 194.963,294.397 194.287 C 294.648 193.896,294.773 193.266,294.673 192.887 C 294.511 192.268,294.488 192.266,294.446 192.867 M259.634 193.400 C 259.622 193.840,259.787 194.470,260.000 194.800 C 260.514 195.595,260.514 194.596,260.000 193.400 L 259.656 192.600 259.634 193.400 M248.600 195.200 C 248.450 195.673,248.417 196.150,248.527 196.260 C 248.637 196.370,248.850 196.073,249.000 195.600 C 249.150 195.127,249.183 194.650,249.073 194.540 C 248.963 194.430,248.750 194.727,248.600 195.200 M174.400 195.213 C 173.754 195.429,174.180 195.466,175.600 195.319 C 176.810 195.194,177.875 195.026,177.967 194.946 C 178.287 194.665,175.391 194.883,174.400 195.213 M180.833 194.950 C 180.925 195.032,182.080 195.200,183.400 195.323 C 184.978 195.470,185.389 195.435,184.600 195.220 C 183.366 194.885,180.536 194.682,180.833 194.950 M215.444 195.800 C 215.773 197.271,216.002 197.590,215.994 196.567 C 215.991 196.145,215.805 195.530,215.582 195.200 C 215.285 194.762,215.248 194.924,215.444 195.800 M223.612 195.200 C 223.612 195.530,223.787 196.070,224.000 196.400 C 224.345 196.933,224.388 196.933,224.388 196.400 C 224.388 196.070,224.213 195.530,224.000 195.200 C 223.655 194.667,223.612 194.667,223.612 195.200 M188.033 196.521 C 188.125 196.588,188.740 196.958,189.400 197.345 L 190.600 198.047 189.656 197.224 C 189.136 196.771,188.521 196.400,188.289 196.400 C 188.057 196.400,187.942 196.454,188.033 196.521 M224.406 197.833 C 224.409 198.255,224.595 198.870,224.818 199.200 C 225.115 199.638,225.152 199.476,224.956 198.600 C 224.627 197.129,224.398 196.810,224.406 197.833 M247.829 198.229 C 247.681 198.815,247.651 199.384,247.761 199.494 C 247.871 199.604,248.081 199.215,248.229 198.629 C 248.376 198.042,248.406 197.473,248.296 197.363 C 248.186 197.253,247.976 197.642,247.829 198.229 M293.067 197.467 C 292.920 197.613,292.811 198.108,292.825 198.567 C 292.849 199.333,292.882 199.323,293.234 198.442 C 293.626 197.463,293.544 196.989,293.067 197.467 M167.000 199.253 C 166.215 199.943,165.643 200.576,165.728 200.661 C 165.813 200.746,166.574 200.182,167.419 199.408 C 169.322 197.665,168.961 197.531,167.000 199.253 M191.471 198.709 C 191.950 199.089,192.670 199.768,193.071 200.219 C 193.472 200.669,193.629 200.759,193.419 200.419 C 192.700 199.250,191.460 198.000,191.030 198.009 C 190.794 198.014,190.992 198.329,191.471 198.709 M261.233 198.800 C 261.221 199.130,261.467 200.210,261.779 201.200 C 262.091 202.190,262.356 202.730,262.367 202.400 C 262.379 202.070,262.133 200.990,261.821 200.000 C 261.509 199.010,261.244 198.470,261.233 198.800 M109.400 200.000 C 109.741 200.660,110.111 201.200,110.221 201.200 C 110.331 201.200,110.141 200.660,109.800 200.000 C 109.459 199.340,109.089 198.800,108.979 198.800 C 108.869 198.800,109.059 199.340,109.400 200.000 M99.740 203.200 C 99.740 205.070,99.809 205.835,99.893 204.900 C 99.977 203.965,99.977 202.435,99.893 201.500 C 99.809 200.565,99.740 201.330,99.740 203.200 M203.228 200.600 C 203.228 200.820,203.486 201.450,203.800 202.000 C 204.114 202.550,204.372 202.820,204.372 202.600 C 204.372 202.380,204.114 201.750,203.800 201.200 C 203.486 200.650,203.228 200.380,203.228 200.600 M216.812 200.800 C 216.812 201.130,216.987 201.670,217.200 202.000 C 217.545 202.533,217.588 202.533,217.588 202.000 C 217.588 201.670,217.413 201.130,217.200 200.800 C 216.855 200.267,216.812 200.267,216.812 200.800 M225.224 200.800 C 225.217 201.130,225.471 202.120,225.788 203.000 C 226.105 203.880,226.370 204.330,226.376 204.000 C 226.383 203.670,226.129 202.680,225.812 201.800 C 225.495 200.920,225.230 200.470,225.224 200.800 M247.246 200.867 C 247.221 201.234,247.096 201.864,246.970 202.267 C 246.752 202.962,246.763 202.963,247.197 202.287 C 247.448 201.896,247.573 201.266,247.473 200.887 C 247.311 200.268,247.288 200.266,247.246 200.867 M155.179 202.655 C 154.958 203.236,154.852 203.785,154.943 203.876 C 155.033 203.967,155.299 203.492,155.533 202.820 C 156.053 201.328,155.739 201.182,155.179 202.655 M284.046 202.067 C 284.021 202.434,283.896 203.064,283.770 203.467 C 283.552 204.162,283.563 204.163,283.997 203.487 C 284.248 203.096,284.373 202.466,284.273 202.087 C 284.111 201.468,284.088 201.466,284.046 202.067 M253.613 202.537 C 253.606 202.722,253.960 203.331,254.400 203.891 C 254.840 204.450,255.200 204.724,255.200 204.498 C 255.200 204.000,253.632 202.061,253.613 202.537 M217.612 203.600 C 217.612 203.930,217.787 204.470,218.000 204.800 C 218.345 205.333,218.388 205.333,218.388 204.800 C 218.388 204.470,218.213 203.930,218.000 203.600 C 217.655 203.067,217.612 203.067,217.612 203.600 M246.301 204.200 C 245.606 207.498,245.595 207.736,246.210 206.073 C 246.561 205.123,246.782 204.043,246.701 203.673 C 246.610 203.256,246.458 203.456,246.301 204.200 M162.981 204.837 C 162.629 205.518,162.412 206.145,162.499 206.232 C 162.586 206.319,162.956 205.762,163.322 204.995 C 164.144 203.270,163.859 203.138,162.981 204.837 M252.857 205.857 C 252.574 207.077,252.416 208.149,252.506 208.240 C 252.597 208.330,252.909 207.412,253.200 206.200 C 253.491 204.988,253.649 203.915,253.551 203.817 C 253.453 203.720,253.141 204.637,252.857 205.857 M112.600 206.000 C 113.157 207.100,113.703 208.000,113.813 208.000 C 113.923 208.000,113.557 207.100,113.000 206.000 C 112.443 204.900,111.897 204.000,111.787 204.000 C 111.677 204.000,112.043 204.900,112.600 206.000 M195.600 204.078 C 195.600 204.205,195.869 204.824,196.198 205.454 C 196.526 206.084,196.790 206.330,196.785 206.000 C 196.779 205.670,196.510 205.051,196.187 204.624 C 195.864 204.196,195.600 203.951,195.600 204.078 M103.600 205.319 C 103.600 205.610,106.383 210.566,106.391 210.289 C 106.404 209.851,104.031 205.200,103.794 205.200 C 103.687 205.200,103.600 205.253,103.600 205.319 M205.234 205.800 C 205.222 206.240,205.387 206.870,205.600 207.200 C 206.114 207.995,206.114 206.996,205.600 205.800 L 205.256 205.000 205.234 205.800 M218.424 206.000 C 218.417 206.330,218.671 207.320,218.988 208.200 C 219.305 209.080,219.570 209.530,219.576 209.200 C 219.583 208.870,219.329 207.880,219.012 207.000 C 218.695 206.120,218.430 205.670,218.424 206.000 M197.044 207.800 C 197.373 209.271,197.602 209.590,197.594 208.567 C 197.591 208.145,197.405 207.530,197.182 207.200 C 196.885 206.762,196.848 206.924,197.044 207.800 M255.844 208.200 C 256.173 209.671,256.402 209.990,256.394 208.967 C 256.391 208.545,256.205 207.930,255.982 207.600 C 255.685 207.162,255.648 207.324,255.844 208.200 M282.067 209.467 C 281.796 210.479,281.645 211.379,281.732 211.465 C 281.819 211.552,282.119 210.803,282.400 209.800 C 282.681 208.797,282.831 207.898,282.735 207.801 C 282.638 207.705,282.337 208.454,282.067 209.467 M153.029 209.029 C 152.881 209.615,152.851 210.184,152.961 210.294 C 153.071 210.404,153.281 210.015,153.429 209.429 C 153.576 208.842,153.606 208.273,153.496 208.163 C 153.386 208.053,153.176 208.442,153.029 209.029 M289.664 209.544 C 289.409 210.396,289.213 211.342,289.228 211.646 C 289.243 211.951,289.524 211.326,289.852 210.258 C 290.180 209.190,290.377 208.243,290.289 208.155 C 290.200 208.067,289.919 208.692,289.664 209.544 M161.449 209.015 C 161.312 209.373,161.218 210.056,161.241 210.533 C 161.267 211.081,161.403 210.886,161.610 210.003 C 161.960 208.516,161.865 207.933,161.449 209.015 M206.046 210.000 C 206.027 210.550,206.187 211.270,206.400 211.600 C 206.894 212.364,206.894 211.542,206.400 210.000 L 206.080 209.000 206.046 210.000 M251.849 209.815 C 251.712 210.173,251.615 210.766,251.634 211.133 C 251.653 211.500,251.827 211.269,252.021 210.620 C 252.398 209.358,252.265 208.733,251.849 209.815 M197.882 211.800 C 198.009 212.900,198.177 213.875,198.256 213.967 C 198.555 214.314,198.328 211.364,197.997 210.600 C 197.774 210.085,197.733 210.513,197.882 211.800 M219.634 210.400 C 219.646 210.730,219.811 211.360,220.000 211.800 L 220.344 212.600 220.366 211.800 C 220.378 211.360,220.213 210.730,220.000 210.400 C 219.655 209.867,219.615 209.867,219.634 210.400 M152.269 212.756 C 152.121 213.495,152.021 214.663,152.047 215.350 C 152.079 216.212,152.205 215.925,152.455 214.423 C 152.853 212.021,152.697 210.617,152.269 212.756 M244.200 212.400 C 244.050 212.873,244.017 213.350,244.127 213.460 C 244.237 213.570,244.450 213.273,244.600 212.800 C 244.750 212.327,244.783 211.850,244.673 211.740 C 244.563 211.630,244.350 211.927,244.200 212.400 M264.828 212.276 C 264.813 212.758,264.980 213.264,265.200 213.400 C 265.673 213.692,265.673 213.301,265.200 212.200 C 264.869 211.429,264.855 211.431,264.828 212.276 M160.656 212.884 C 160.521 213.388,160.432 214.520,160.458 215.400 C 160.497 216.720,160.559 216.580,160.813 214.600 C 161.137 212.078,161.070 211.341,160.656 212.884 M288.667 212.667 C 288.520 212.813,288.411 213.308,288.425 213.767 C 288.449 214.533,288.482 214.523,288.834 213.642 C 289.226 212.663,289.144 212.189,288.667 212.667 M257.212 213.200 C 257.212 213.530,257.387 214.070,257.600 214.400 C 257.945 214.933,257.988 214.933,257.988 214.400 C 257.988 214.070,257.813 213.530,257.600 213.200 C 257.255 212.667,257.212 212.667,257.212 213.200 M108.600 214.800 C 108.941 215.460,109.311 216.000,109.421 216.000 C 109.531 216.000,109.341 215.460,109.000 214.800 C 108.659 214.140,108.289 213.600,108.179 213.600 C 108.069 213.600,108.259 214.140,108.600 214.800 M206.959 219.200 C 206.959 222.390,207.021 223.695,207.097 222.100 C 207.173 220.505,207.173 217.895,207.097 216.300 C 207.021 214.705,206.959 216.010,206.959 219.200 M228.806 214.233 C 228.809 214.655,228.995 215.270,229.218 215.600 C 229.515 216.038,229.552 215.876,229.356 215.000 C 229.027 213.529,228.798 213.210,228.806 214.233 M280.446 215.667 C 280.421 216.034,280.296 216.664,280.170 217.067 C 279.952 217.762,279.963 217.763,280.397 217.087 C 280.648 216.696,280.773 216.066,280.673 215.687 C 280.511 215.068,280.488 215.066,280.446 215.667 M229.606 217.233 C 229.609 217.765,229.789 218.470,230.006 218.800 C 230.282 219.222,230.323 218.985,230.142 218.000 C 229.825 216.275,229.598 215.949,229.606 217.233 M198.528 219.600 C 198.528 221.030,198.601 221.615,198.689 220.900 C 198.778 220.185,198.778 219.015,198.689 218.300 C 198.601 217.585,198.528 218.170,198.528 219.600 M242.854 217.867 C 242.825 218.344,242.696 219.064,242.570 219.467 C 242.352 220.161,242.364 220.162,242.796 219.488 C 243.047 219.097,243.175 218.377,243.081 217.888 C 242.909 217.001,242.909 217.001,242.854 217.867 M249.429 219.029 C 249.281 219.615,249.251 220.184,249.361 220.294 C 249.471 220.404,249.681 220.015,249.829 219.429 C 249.976 218.842,250.006 218.273,249.896 218.163 C 249.786 218.053,249.576 218.442,249.429 219.029 M222.056 218.800 C 222.056 219.130,222.211 219.760,222.400 220.200 C 222.617 220.704,222.744 220.778,222.744 220.400 C 222.744 220.070,222.589 219.440,222.400 219.000 C 222.183 218.496,222.056 218.422,222.056 218.800 M258.836 218.800 C 258.823 219.130,259.071 220.120,259.388 221.000 C 259.705 221.880,259.959 222.240,259.952 221.800 C 259.936 220.823,258.871 217.958,258.836 218.800 M279.646 218.667 C 279.621 218.924,279.484 219.464,279.341 219.867 C 279.140 220.436,279.194 220.497,279.579 220.142 C 279.852 219.891,279.989 219.351,279.884 218.942 C 279.779 218.534,279.672 218.410,279.646 218.667 M267.044 220.200 C 267.373 221.671,267.602 221.990,267.594 220.967 C 267.591 220.545,267.405 219.930,267.182 219.600 C 266.885 219.162,266.848 219.324,267.044 220.200 M120.006 219.663 C 119.997 220.039,122.834 225.321,123.301 225.800 C 123.516 226.020,123.041 224.940,122.246 223.400 C 120.669 220.345,120.016 219.256,120.006 219.663 M230.457 220.200 C 230.461 221.034,231.521 224.100,231.563 223.400 C 231.577 223.180,231.333 222.190,231.021 221.200 C 230.709 220.210,230.455 219.760,230.457 220.200 M112.200 221.600 C 112.541 222.260,112.911 222.800,113.021 222.800 C 113.131 222.800,112.941 222.260,112.600 221.600 C 112.259 220.940,111.889 220.400,111.779 220.400 C 111.669 220.400,111.859 220.940,112.200 221.600 M241.863 221.500 C 241.479 223.396,241.177 225.463,241.352 225.000 C 241.991 223.306,242.466 221.200,242.312 220.746 C 242.210 220.446,242.008 220.785,241.863 221.500 M248.663 221.900 C 248.279 223.796,247.977 225.863,248.152 225.400 C 248.791 223.706,249.266 221.600,249.112 221.146 C 249.010 220.846,248.808 221.185,248.663 221.900 M222.837 221.400 C 222.823 221.620,223.067 222.610,223.379 223.600 C 223.691 224.590,223.945 225.040,223.943 224.600 C 223.939 223.766,222.879 220.700,222.837 221.400 M278.846 221.667 C 278.821 222.034,278.696 222.664,278.570 223.067 C 278.352 223.762,278.363 223.763,278.797 223.087 C 279.048 222.696,279.173 222.066,279.073 221.687 C 278.911 221.068,278.888 221.066,278.846 221.667 M267.612 222.400 C 267.612 222.730,267.787 223.270,268.000 223.600 C 268.345 224.133,268.388 224.133,268.388 223.600 C 268.388 223.270,268.213 222.730,268.000 222.400 C 267.655 221.867,267.612 221.867,267.612 222.400 M260.244 223.800 C 260.573 225.271,260.802 225.590,260.794 224.567 C 260.791 224.145,260.605 223.530,260.382 223.200 C 260.085 222.762,260.048 222.924,260.244 223.800 M113.269 223.500 C 114.021 225.164,115.691 228.043,115.825 227.908 C 116.024 227.709,113.641 223.200,113.337 223.200 C 113.225 223.200,113.194 223.335,113.269 223.500 M285.277 224.938 C 285.015 225.664,284.809 226.514,284.819 226.828 C 284.830 227.143,285.112 226.618,285.447 225.661 C 285.782 224.705,285.988 223.855,285.905 223.771 C 285.822 223.688,285.539 224.213,285.277 224.938 M160.428 225.433 C 160.444 226.295,160.617 227.360,160.814 227.800 C 161.048 228.322,161.088 227.837,160.932 226.400 C 160.643 223.758,160.389 223.270,160.428 225.433 M278.054 224.667 C 278.025 225.144,277.896 225.864,277.770 226.267 C 277.552 226.961,277.564 226.962,277.996 226.288 C 278.247 225.897,278.375 225.177,278.281 224.688 C 278.109 223.801,278.109 223.801,278.054 224.667 M152.040 225.833 C 152.062 226.695,152.233 227.850,152.421 228.400 C 152.642 229.048,152.680 228.555,152.531 227.000 C 152.263 224.220,151.982 223.551,152.040 225.833 M231.612 224.800 C 231.612 225.130,231.787 225.670,232.000 226.000 C 232.345 226.533,232.388 226.533,232.388 226.000 C 232.388 225.670,232.213 225.130,232.000 224.800 C 231.655 224.267,231.612 224.267,231.612 224.800 M198.060 226.050 C 198.027 226.628,197.911 227.707,197.801 228.450 L 197.603 229.800 198.024 228.457 C 198.255 227.719,198.372 226.639,198.282 226.057 L 198.120 225.000 198.060 226.050 M240.600 226.400 C 240.450 226.873,240.417 227.350,240.527 227.460 C 240.637 227.570,240.850 227.273,241.000 226.800 C 241.150 226.327,241.183 225.850,241.073 225.740 C 240.963 225.630,240.750 225.927,240.600 226.400 M247.449 226.615 C 247.312 226.973,247.215 227.566,247.234 227.933 C 247.253 228.300,247.427 228.069,247.621 227.420 C 247.998 226.158,247.865 225.533,247.449 226.615 M260.828 226.276 C 260.918 227.315,261.544 228.196,261.572 227.324 C 261.587 226.842,261.420 226.336,261.200 226.200 C 260.980 226.064,260.813 226.098,260.828 226.276 M206.249 227.015 C 206.112 227.373,206.016 228.056,206.036 228.533 C 206.062 229.147,206.185 229.008,206.459 228.056 C 206.857 226.672,206.694 225.858,206.249 227.015 M269.206 228.233 C 269.209 228.655,269.395 229.270,269.618 229.600 C 269.915 230.038,269.952 229.876,269.756 229.000 C 269.427 227.529,269.198 227.210,269.206 228.233 M284.249 228.215 C 284.112 228.573,284.015 229.166,284.034 229.533 C 284.053 229.900,284.227 229.669,284.421 229.020 C 284.798 227.758,284.665 227.133,284.249 228.215 M161.206 230.033 C 161.209 230.565,161.389 231.270,161.606 231.600 C 161.882 232.022,161.923 231.785,161.742 230.800 C 161.425 229.075,161.198 228.749,161.206 230.033 M246.649 229.815 C 246.512 230.173,246.415 230.766,246.434 231.133 C 246.453 231.500,246.627 231.269,246.821 230.620 C 247.198 229.358,247.065 228.733,246.649 229.815 M117.400 231.200 C 117.741 231.860,118.111 232.400,118.221 232.400 C 118.331 232.400,118.141 231.860,117.800 231.200 C 117.459 230.540,117.089 230.000,116.979 230.000 C 116.869 230.000,117.059 230.540,117.400 231.200 M197.246 230.267 C 197.221 230.524,197.084 231.064,196.941 231.467 C 196.740 232.036,196.794 232.097,197.179 231.742 C 197.452 231.491,197.589 230.951,197.484 230.542 C 197.379 230.134,197.272 230.010,197.246 230.267 M153.062 231.800 C 153.196 232.680,153.372 233.475,153.453 233.567 C 153.756 233.910,153.529 231.768,153.181 231.000 C 152.929 230.442,152.893 230.685,153.062 231.800 M205.449 231.015 C 205.312 231.373,205.215 231.966,205.234 232.333 C 205.253 232.700,205.427 232.469,205.621 231.820 C 205.998 230.558,205.865 229.933,205.449 231.015 M270.006 231.033 C 270.009 231.455,270.195 232.070,270.418 232.400 C 270.715 232.838,270.752 232.676,270.556 231.800 C 270.227 230.329,269.998 230.010,270.006 231.033 M127.000 233.200 C 127.341 233.860,127.711 234.400,127.821 234.400 C 127.931 234.400,127.741 233.860,127.400 233.200 C 127.059 232.540,126.689 232.000,126.579 232.000 C 126.469 232.000,126.659 232.540,127.000 233.200 M196.446 232.877 C 196.421 233.250,196.022 234.195,195.560 234.977 C 195.099 235.760,194.811 236.400,194.921 236.400 C 195.373 236.400,196.825 233.442,196.665 232.845 C 196.514 232.279,196.487 232.283,196.446 232.877 M234.006 233.633 C 234.009 234.165,234.189 234.870,234.406 235.200 C 234.682 235.622,234.723 235.385,234.542 234.400 C 234.225 232.675,233.998 232.349,234.006 233.633 M270.847 233.800 C 270.828 234.240,271.087 235.320,271.422 236.200 C 272.039 237.817,271.964 236.973,271.263 234.400 C 271.047 233.605,270.867 233.346,270.847 233.800 M226.412 234.400 C 226.412 234.730,226.587 235.270,226.800 235.600 C 227.145 236.133,227.188 236.133,227.188 235.600 C 227.188 235.270,227.013 234.730,226.800 234.400 C 226.455 233.867,226.412 233.867,226.412 234.400 M162.800 235.047 C 162.800 235.267,163.064 235.796,163.387 236.224 C 163.710 236.651,163.975 236.820,163.975 236.600 C 163.975 236.380,163.710 235.851,163.387 235.424 C 163.064 234.996,162.800 234.827,162.800 235.047 M238.446 235.267 C 238.421 235.634,238.296 236.264,238.170 236.667 C 237.952 237.362,237.963 237.363,238.397 236.687 C 238.648 236.296,238.773 235.666,238.673 235.287 C 238.511 234.668,238.488 234.666,238.446 235.267 M203.665 236.217 C 203.409 236.778,203.207 237.454,203.216 237.719 C 203.224 237.983,203.497 237.588,203.822 236.839 C 204.505 235.265,204.361 234.690,203.665 236.217 M245.029 236.229 C 244.881 236.815,244.838 237.372,244.932 237.466 C 245.027 237.560,245.224 237.158,245.371 236.571 C 245.519 235.985,245.562 235.428,245.468 235.334 C 245.373 235.240,245.176 235.642,245.029 236.229 M154.421 236.304 C 154.388 237.096,155.999 240.303,156.719 240.880 C 157.170 241.241,157.118 241.033,156.550 240.200 C 156.100 239.540,155.441 238.280,155.086 237.400 C 154.732 236.520,154.432 236.027,154.421 236.304 M234.848 236.600 C 234.864 237.577,235.929 240.442,235.964 239.600 C 235.977 239.270,235.729 238.280,235.412 237.400 C 235.095 236.520,234.841 236.160,234.848 236.600 M281.800 236.800 C 281.650 237.273,281.617 237.750,281.727 237.860 C 281.837 237.970,282.050 237.673,282.200 237.200 C 282.350 236.727,282.383 236.250,282.273 236.140 C 282.163 236.030,281.950 236.327,281.800 236.800 M227.206 237.033 C 227.209 237.455,227.395 238.070,227.618 238.400 C 227.915 238.838,227.952 238.676,227.756 237.800 C 227.427 236.329,227.198 236.010,227.206 237.033 M193.296 238.402 C 191.533 240.502,191.651 240.788,193.456 238.791 C 194.257 237.904,194.840 237.107,194.752 237.019 C 194.664 236.931,194.009 237.553,193.296 238.402 M264.037 237.400 C 264.023 237.620,264.267 238.610,264.579 239.600 C 264.891 240.590,265.145 241.040,265.143 240.600 C 265.139 239.766,264.079 236.700,264.037 237.400 M237.646 238.281 C 237.582 239.512,236.752 241.218,236.342 240.964 C 236.154 240.848,236.000 241.033,236.000 241.376 C 236.000 242.485,236.660 242.040,237.378 240.449 C 237.763 239.596,237.991 238.561,237.885 238.149 C 237.722 237.513,237.686 237.533,237.646 238.281 M121.267 238.300 C 121.876 239.671,124.539 244.394,124.644 244.289 C 124.821 244.112,121.612 238.000,121.343 238.000 C 121.227 238.000,121.193 238.135,121.267 238.300 M243.635 241.635 C 243.131 243.625,242.794 245.327,242.885 245.418 C 242.976 245.509,243.462 243.955,243.965 241.965 C 244.469 239.975,244.806 238.273,244.715 238.182 C 244.624 238.091,244.138 239.645,243.635 241.635 M274.288 239.058 C 274.151 239.743,273.760 240.582,273.420 240.923 C 272.729 241.614,272.628 242.000,273.139 242.000 C 273.623 242.000,274.925 238.974,274.714 238.341 C 274.617 238.050,274.425 238.373,274.288 239.058 M165.207 238.995 C 165.533 239.432,166.137 240.152,166.549 240.595 L 167.299 241.400 166.886 240.596 C 166.660 240.153,166.056 239.433,165.544 238.996 C 164.617 238.203,164.616 238.203,165.207 238.995 M280.877 240.138 C 280.615 240.864,280.409 241.714,280.419 242.028 C 280.430 242.343,280.712 241.818,281.047 240.861 C 281.382 239.905,281.588 239.055,281.505 238.971 C 281.422 238.888,281.139 239.413,280.877 240.138 M228.024 239.600 C 228.017 239.930,228.271 240.920,228.588 241.800 C 228.905 242.680,229.170 243.130,229.176 242.800 C 229.183 242.470,228.929 241.480,228.612 240.600 C 228.295 239.720,228.030 239.270,228.024 239.600 M67.600 241.236 C 66.936 241.779,66.869 241.915,67.400 241.640 C 68.705 240.966,69.428 240.412,69.000 240.415 C 68.780 240.417,68.150 240.786,67.600 241.236 M190.200 241.388 C 189.540 241.929,189.194 242.378,189.430 242.386 C 189.667 242.394,190.283 241.950,190.800 241.400 C 191.994 240.129,191.742 240.124,190.200 241.388 M75.446 242.200 C 76.434 244.826,76.070 248.731,74.720 249.989 C 74.241 250.435,74.066 250.800,74.330 250.800 C 76.073 250.800,77.123 244.625,75.758 242.400 C 75.382 241.787,75.261 241.710,75.446 242.200 M157.598 242.397 C 158.587 244.243,165.200 249.656,165.200 248.618 C 165.200 248.507,164.513 248.066,163.673 247.637 C 162.833 247.209,161.010 245.644,159.622 244.160 C 158.234 242.676,157.323 241.882,157.598 242.397 M265.444 242.600 C 265.773 244.071,266.002 244.390,265.994 243.367 C 265.991 242.945,265.805 242.330,265.582 242.000 C 265.285 241.562,265.248 241.724,265.444 242.600 M198.000 244.693 C 195.675 247.066,195.603 247.184,197.317 245.811 C 198.875 244.563,201.236 241.938,200.727 242.020 C 200.657 242.032,199.430 243.235,198.000 244.693 M66.252 243.300 C 65.936 244.478,65.982 247.614,66.328 248.485 C 66.478 248.862,66.600 247.647,66.600 245.785 C 66.600 242.046,66.596 242.017,66.252 243.300 M279.849 243.415 C 279.712 243.773,279.615 244.366,279.634 244.733 C 279.653 245.100,279.827 244.869,280.021 244.220 C 280.398 242.958,280.265 242.333,279.849 243.415 M174.000 244.397 C 174.541 244.750,177.964 244.999,177.567 244.656 C 177.475 244.577,176.500 244.399,175.400 244.259 C 174.035 244.086,173.590 244.130,174.000 244.397 M183.000 244.400 L 182.200 244.744 183.000 244.766 C 183.440 244.778,184.070 244.613,184.400 244.400 C 185.195 243.886,184.196 243.886,183.000 244.400 M229.228 244.276 C 229.318 245.315,229.944 246.196,229.972 245.324 C 229.987 244.842,229.820 244.336,229.600 244.200 C 229.380 244.064,229.213 244.098,229.228 244.276 M279.049 246.215 C 278.912 246.573,278.815 247.166,278.834 247.533 C 278.853 247.900,279.027 247.669,279.221 247.020 C 279.598 245.758,279.465 245.133,279.049 246.215 M242.229 247.029 C 242.081 247.615,242.038 248.172,242.132 248.266 C 242.227 248.360,242.424 247.958,242.571 247.371 C 242.719 246.785,242.762 246.228,242.668 246.134 C 242.573 246.040,242.376 246.442,242.229 247.029 M192.200 248.635 C 190.880 249.374,189.940 249.983,190.111 249.989 C 190.547 250.004,195.200 247.632,195.200 247.394 C 195.200 247.041,194.626 247.279,192.200 248.635 M126.400 247.725 C 126.400 247.794,126.985 248.379,127.700 249.025 L 129.000 250.200 127.825 248.900 C 126.730 247.688,126.400 247.416,126.400 247.725 M137.200 249.871 C 136.650 250.453,136.455 250.845,136.766 250.743 C 137.265 250.578,138.728 248.789,138.349 248.807 C 138.267 248.811,137.750 249.290,137.200 249.871 M277.600 249.871 C 277.050 250.453,276.855 250.845,277.166 250.743 C 277.665 250.578,279.128 248.789,278.749 248.807 C 278.667 248.811,278.150 249.290,277.600 249.871 M241.002 249.998 C 240.603 250.439,240.462 250.800,240.689 250.800 C 241.192 250.800,242.190 249.657,241.921 249.388 C 241.815 249.282,241.402 249.556,241.002 249.998 M69.907 251.090 C 70.626 251.179,71.706 251.177,72.307 251.086 C 72.908 250.995,72.320 250.922,71.000 250.924 C 69.680 250.926,69.188 251.001,69.907 251.090 M95.100 251.082 C 95.595 251.178,96.405 251.178,96.900 251.082 C 97.395 250.987,96.990 250.909,96.000 250.909 C 95.010 250.909,94.605 250.987,95.100 251.082 M172.400 251.200 C 172.950 251.376,173.760 251.526,174.200 251.532 L 175.000 251.544 174.200 251.200 C 173.760 251.011,172.950 250.862,172.400 250.868 L 171.400 250.880 172.400 251.200 M183.800 251.200 L 183.000 251.544 183.800 251.532 C 184.240 251.526,185.050 251.376,185.600 251.200 L 186.600 250.880 185.600 250.868 C 185.050 250.862,184.240 251.011,183.800 251.200 M235.091 251.089 C 235.801 251.177,237.061 251.179,237.891 251.092 C 238.721 251.005,238.140 250.933,236.600 250.931 C 235.060 250.929,234.381 251.000,235.091 251.089 M271.907 251.090 C 272.626 251.179,273.706 251.177,274.307 251.086 C 274.908 250.995,274.320 250.922,273.000 250.924 C 271.680 250.926,271.188 251.001,271.907 251.090 " stroke="none" fill="#747474" fill-rule="evenodd"></path><path id="path4" d="M179.505 187.883 C 180.002 187.979,180.722 187.975,181.105 187.875 C 181.487 187.775,181.080 187.696,180.200 187.701 C 179.320 187.705,179.007 187.787,179.505 187.883 M133.705 188.687 C 134.314 188.779,135.214 188.777,135.705 188.682 C 136.197 188.587,135.700 188.511,134.600 188.514 C 133.500 188.517,133.097 188.595,133.705 188.687 M178.705 195.083 C 179.202 195.179,179.922 195.175,180.305 195.075 C 180.687 194.975,180.280 194.896,179.400 194.901 C 178.520 194.905,178.207 194.987,178.705 195.083 M160.544 220.400 C 160.544 222.490,160.612 223.345,160.694 222.300 C 160.776 221.255,160.776 219.545,160.694 218.500 C 160.612 217.455,160.544 218.310,160.544 220.400 M151.737 220.200 C 151.739 221.960,151.809 222.630,151.893 221.689 C 151.978 220.749,151.977 219.309,151.891 218.489 C 151.805 217.670,151.736 218.440,151.737 220.200 M130.398 233.281 C 130.289 236.296,130.341 238.621,130.512 238.449 C 130.684 238.276,130.774 235.810,130.711 232.968 L 130.597 227.800 130.398 233.281 M159.200 244.525 C 159.200 244.594,159.785 245.179,160.500 245.825 L 161.800 247.000 160.625 245.700 C 159.530 244.488,159.200 244.216,159.200 244.525 M180.500 244.676 C 180.885 244.776,181.515 244.776,181.900 244.676 C 182.285 244.575,181.970 244.493,181.200 244.493 C 180.430 244.493,180.115 244.575,180.500 244.676 M132.707 251.090 C 133.426 251.179,134.506 251.177,135.107 251.086 C 135.708 250.995,135.120 250.922,133.800 250.924 C 132.480 250.926,131.988 251.001,132.707 251.090 M176.700 251.895 C 177.855 251.976,179.745 251.976,180.900 251.895 C 182.055 251.814,181.110 251.748,178.800 251.748 C 176.490 251.748,175.545 251.814,176.700 251.895 " stroke="none" fill="#848484" fill-rule="evenodd"></path></g></svg>